<?xml version="1.0" encoding="utf-8"?>
<!-- Generator: Adobe Illustrator 24.2.3, SVG Export Plug-In . SVG Version: 6.00 Build 0)  -->
<svg version="1.1" id="Layer_1" xmlns="http://www.w3.org/2000/svg" xmlns:xlink="http://www.w3.org/1999/xlink" x="0px" y="0px"
	 viewBox="0 0 940.4 220.1" style="enable-background:new 0 0 940.4 220.1;" xml:space="preserve">
<style type="text/css">
	.st0{clip-path:url(#SVGID_2_);}
	.st1{fill-rule:evenodd;clip-rule:evenodd;fill-opacity:0;}
	.st2{fill-rule:evenodd;clip-rule:evenodd;fill:#CFE2F3;}
	.st3{fill:none;stroke:#000000;stroke-linejoin:round;stroke-miterlimit:10;}
	.st4{fill:none;stroke:#000000;stroke-width:2;stroke-linejoin:round;stroke-miterlimit:10;}
	.st5{fill-rule:evenodd;clip-rule:evenodd;stroke:#000000;stroke-width:2;stroke-miterlimit:10;}
	.st6{fill-rule:evenodd;clip-rule:evenodd;fill:#CCCCCC;}
	.st7{stroke:#000000;stroke-width:0.25;stroke-miterlimit:10;}
	.st8{font-family:'ArialMT';}
	.st9{font-size:18px;}
</style>
<g>
	<defs>
		<rect id="SVGID_1_" y="0" width="940.4" height="220.1"/>
	</defs>
	<clipPath id="SVGID_2_">
		<use xlink:href="#SVGID_1_"  style="overflow:visible;"/>
	</clipPath>
	<g class="st0">
		<path class="st1" d="M0,0h940.4v220.1H0V0z"/>
		<path class="st2" d="M23.6,114.2L23.6,114.2c0-40.9,33.2-74.1,74.1-74.1l0,0c19.7,0,38.5,7.8,52.4,21.7
			c13.9,13.9,21.7,32.7,21.7,52.4l0,0c0,40.9-33.2,74.1-74.1,74.1l0,0C56.7,188.3,23.6,155.1,23.6,114.2L23.6,114.2z"/>
		<path class="st3" d="M23.6,114.2L23.6,114.2c0-40.9,33.2-74.1,74.1-74.1l0,0c19.7,0,38.5,7.8,52.4,21.7
			c13.9,13.9,21.7,32.7,21.7,52.4l0,0c0,40.9-33.2,74.1-74.1,74.1l0,0C56.7,188.3,23.6,155.1,23.6,114.2L23.6,114.2z"/>
		<path class="st1" d="M171.8,114.2h83.8"/>
		<path class="st4" d="M171.8,114.2h71.8"/>
		<path class="st5" d="M243.6,117.5l9.1-3.3l-9.1-3.3V117.5z"/>
		<path class="st2" d="M255.6,114.2L255.6,114.2c0-40.9,33.2-74.1,74.1-74.1l0,0c19.7,0,38.5,7.8,52.4,21.7
			c13.9,13.9,21.7,32.7,21.7,52.4l0,0c0,40.9-33.2,74.1-74.1,74.1l0,0C288.8,188.3,255.6,155.1,255.6,114.2z"/>
		<path class="st3" d="M255.6,114.2L255.6,114.2c0-40.9,33.2-74.1,74.1-74.1l0,0c19.7,0,38.5,7.8,52.4,21.7
			c13.9,13.9,21.7,32.7,21.7,52.4l0,0c0,40.9-33.2,74.1-74.1,74.1l0,0C288.8,188.3,255.6,155.1,255.6,114.2z"/>
		<path class="st1" d="M403.8,114.2h83.8"/>
		<path class="st4" d="M403.8,114.2h71.8"/>
		<path class="st5" d="M475.6,117.5l9.1-3.3l-9.1-3.3V117.5z"/>
		<path class="st2" d="M487.6,114.2L487.6,114.2c0-40.9,33.2-74.1,74.1-74.1l0,0c19.7,0,38.5,7.8,52.4,21.7s21.7,32.7,21.7,52.4l0,0
			c0,40.9-33.2,74.1-74.1,74.1l0,0C520.8,188.3,487.6,155.1,487.6,114.2z"/>
		<path class="st3" d="M487.6,114.2L487.6,114.2c0-40.9,33.2-74.1,74.1-74.1l0,0c19.7,0,38.5,7.8,52.4,21.7s21.7,32.7,21.7,52.4l0,0
			c0,40.9-33.2,74.1-74.1,74.1l0,0C520.8,188.3,487.6,155.1,487.6,114.2z"/>
		<path class="st1" d="M635.8,114.2h60"/>
		<path class="st4" d="M635.8,114.2h48"/>
		<path class="st5" d="M683.8,117.5l9.1-3.3l-9.1-3.3V117.5z"/>
		<path class="st1" d="M831.1,114.2h-49.4"/>
		<path class="st4" d="M831.1,114.2h-37.4"/>
		<path class="st5" d="M793.6,110.9l-9.1,3.3l9.1,3.3V110.9z"/>
		<path class="st1" d="M695.8,86h85.8v56.3h-85.8V86z"/>
		<path class="st3" d="M695.8,86h85.8v56.3h-85.8V86z"/>
		<path d="M732.2,125.9V103h3v20.2h11.3v2.7H732.2z"/>
		<path class="st6" d="M831.1,86h85.8v56.3h-85.8V86z"/>
		<path class="st3" d="M831.1,86h85.8v56.3h-85.8V86z"/>
		<path d="M868,132.3l-0.3-2.6c0.6,0.2,1.2,0.3,1.6,0.3c0.6,0,1.1-0.1,1.5-0.3c0.4-0.2,0.7-0.5,0.9-0.9c0.2-0.3,0.5-1,0.9-2.1
			c0.1-0.2,0.1-0.4,0.3-0.7l-6.3-16.6h3l3.5,9.6c0.4,1.2,0.8,2.5,1.2,3.8c0.3-1.3,0.7-2.6,1.2-3.8l3.5-9.7h2.8l-6.3,16.9
			c-0.7,1.8-1.2,3.1-1.6,3.8c-0.5,0.9-1.1,1.6-1.7,2c-0.6,0.4-1.4,0.7-2.3,0.7C869.2,132.7,868.6,132.5,868,132.3z"/>
		<path class="st1" d="M561.7,40.1v148.2"/>
		<path class="st3" d="M561.7,40.1v148.2"/>
		<path class="st1" d="M329.7,40.1v148.2"/>
		<path class="st3" d="M329.7,40.1v148.2"/>
		<path class="st1" d="M255.6,86h85.8v56.3h-85.8V86z"/>
		<path d="M278.4,121l2.8-0.4c0.2,1.1,0.6,2,1.3,2.6c0.7,0.6,1.7,0.9,3,0.9c1.3,0,2.3-0.3,2.9-0.8c0.6-0.5,0.9-1.2,0.9-1.9
			c0-0.6-0.3-1.1-0.8-1.5c-0.4-0.3-1.3-0.6-2.9-1c-2.1-0.5-3.5-1-4.3-1.3c-0.8-0.4-1.4-0.9-1.8-1.6c-0.4-0.7-0.6-1.4-0.6-2.2
			c0-0.7,0.2-1.4,0.5-2c0.3-0.6,0.8-1.2,1.4-1.6c0.4-0.3,1-0.6,1.8-0.8c0.8-0.2,1.6-0.3,2.4-0.3c1.3,0,2.4,0.2,3.4,0.6
			c1,0.4,1.7,0.9,2.2,1.5c0.5,0.6,0.8,1.5,1,2.6l-2.8,0.4c-0.1-0.9-0.5-1.5-1.1-2c-0.6-0.5-1.4-0.7-2.5-0.7c-1.3,0-2.2,0.2-2.8,0.6
			c-0.6,0.4-0.8,0.9-0.8,1.5c0,0.4,0.1,0.7,0.3,1c0.2,0.3,0.6,0.6,1.1,0.8c0.3,0.1,1.1,0.3,2.5,0.7c2,0.5,3.4,1,4.2,1.3
			c0.8,0.3,1.4,0.8,1.9,1.5c0.4,0.6,0.7,1.4,0.7,2.4c0,0.9-0.3,1.8-0.8,2.7c-0.5,0.8-1.3,1.5-2.4,1.9c-1,0.4-2.2,0.7-3.5,0.7
			c-2.2,0-3.8-0.4-4.9-1.3C279.5,124.1,278.8,122.7,278.4,121z"/>
		<path class="st1" d="M54.8,86h85.8v56.3H54.8V86z"/>
		<path d="M89.9,125.9l6.1-8.6l-5.6-8h3.5l2.5,3.9c0.5,0.7,0.9,1.4,1.2,1.9c0.5-0.7,0.9-1.3,1.3-1.8l2.8-3.9h3.4l-5.7,7.8l6.2,8.8
			H102l-3.4-5.2l-0.9-1.4l-4.4,6.5H89.9z"/>
		<path class="st1" d="M328.7,86h85.8v56.3h-85.8V86z"/>
		<path d="M351.2,125.9v-2.3l10.6-12.1c-1.2,0.1-2.3,0.1-3.2,0.1h-6.8v-2.3h13.6v1.9l-9,10.5l-1.7,1.9c1.3-0.1,2.4-0.1,3.5-0.1h7.7
			v2.4H351.2z"/>
		<path class="st1" d="M487.6,86h85.8v56.3h-85.8V86z"/>
		<path d="M510.5,121l2.8-0.4c0.2,1.1,0.6,2,1.3,2.6c0.7,0.6,1.7,0.9,3,0.9c1.3,0,2.3-0.3,2.9-0.8c0.6-0.5,0.9-1.2,0.9-1.9
			c0-0.6-0.3-1.1-0.8-1.5c-0.4-0.3-1.3-0.6-2.9-1c-2.1-0.5-3.5-1-4.3-1.3c-0.8-0.4-1.4-0.9-1.8-1.6c-0.4-0.7-0.6-1.4-0.6-2.2
			c0-0.7,0.2-1.4,0.5-2c0.3-0.6,0.8-1.2,1.4-1.6c0.4-0.3,1-0.6,1.8-0.8c0.8-0.2,1.6-0.3,2.4-0.3c1.3,0,2.4,0.2,3.4,0.6
			c1,0.4,1.7,0.9,2.2,1.5c0.5,0.6,0.8,1.5,1,2.6l-2.8,0.4c-0.1-0.9-0.5-1.5-1.1-2c-0.6-0.5-1.4-0.7-2.5-0.7c-1.3,0-2.2,0.2-2.8,0.6
			c-0.6,0.4-0.8,0.9-0.8,1.5c0,0.4,0.1,0.7,0.3,1c0.2,0.3,0.6,0.6,1.1,0.8c0.3,0.1,1.1,0.3,2.5,0.7c2,0.5,3.4,1,4.2,1.3
			c0.8,0.3,1.4,0.8,1.9,1.5c0.4,0.6,0.7,1.4,0.7,2.4c0,0.9-0.3,1.8-0.8,2.7c-0.5,0.8-1.3,1.5-2.4,1.9c-1,0.4-2.2,0.7-3.5,0.7
			c-2.2,0-3.8-0.4-4.9-1.3C511.5,124.1,510.8,122.7,510.5,121z"/>
		<path class="st1" d="M571.4,86h85.8v56.3h-85.8V86z"/>
		<path d="M582.4,132.3l-0.3-2.6c0.6,0.2,1.2,0.3,1.6,0.3c0.6,0,1.1-0.1,1.5-0.3c0.4-0.2,0.7-0.5,0.9-0.9c0.2-0.3,0.5-1,0.9-2.1
			c0.1-0.2,0.1-0.4,0.3-0.7l-6.3-16.6h3l3.5,9.6c0.4,1.2,0.8,2.5,1.2,3.8c0.3-1.3,0.7-2.6,1.2-3.8l3.5-9.7h2.8l-6.3,16.9
			c-0.7,1.8-1.2,3.1-1.6,3.8c-0.5,0.9-1.1,1.6-1.7,2c-0.6,0.4-1.4,0.7-2.3,0.7C583.7,132.7,583.1,132.5,582.4,132.3z"/>
		<path class="st1" d="M582,106.1l8.1-7.3"/>
		<path class="st4" d="M582,106.1l8.1-7.3"/>
		<path class="st1" d="M588.5,98.8l7.5,7.3"/>
		<path class="st4" d="M588.5,98.8l7.5,7.3"/>
		<path class="st1" d="M170.8,54.3h85.8v56.3h-85.8V54.3z"/>
		<path d="M194.3,94.1l-5.1-16.6h2.9l2.6,9.6l1,3.6c0-0.2,0.3-1.3,0.9-3.4l2.6-9.7h2.9l2.5,9.6l0.8,3.2l1-3.2l2.8-9.6h2.7l-5.2,16.6
			h-2.9l-2.6-9.9l-0.6-2.8l-3.4,12.8H194.3z"/>
		<path class="st1" d="M402.8,54.3h85.8v56.3h-85.8V54.3z"/>
		<path d="M426.3,94.1l-5.1-16.6h2.9l2.6,9.6l1,3.6c0-0.2,0.3-1.3,0.9-3.4l2.6-9.7h2.9l2.5,9.6l0.8,3.2l1-3.2l2.8-9.6h2.7l-5.2,16.6
			h-2.9l-2.6-9.9l-0.6-2.8l-3.4,12.8H426.3z"/>
	</g>
</g>
<text transform="matrix(1 0 0 1 210.2551 101.3578)" class="st7 st8 st9">1</text>
<text transform="matrix(1 0 0 1 366.4424 132.9675)" class="st7 st8 st9">1</text>
<text transform="matrix(1 0 0 1 292.3999 132.9672)" class="st7 st8 st9">1</text>
<text transform="matrix(1 0 0 1 445.333 101.3574)" class="st7 st8 st9">2</text>
<text transform="matrix(1 0 0 1 525.5032 132.9677)" class="st7 st8 st9">2</text>
</svg>
