<?xml version="1.0" encoding="utf-8"?>
<!-- Generator: Adobe Illustrator 24.2.3, SVG Export Plug-In . SVG Version: 6.00 Build 0)  -->
<svg version="1.1" id="Layer_1" xmlns="http://www.w3.org/2000/svg" xmlns:xlink="http://www.w3.org/1999/xlink" x="0px" y="0px"
	 viewBox="0 0 1009.9 505.8" style="enable-background:new 0 0 1009.9 505.8;" xml:space="preserve">
<style type="text/css">
	.st0{clip-path:url(#SVGID_2_);}
	.st1{fill-rule:evenodd;clip-rule:evenodd;fill-opacity:0;}
	.st2{fill-rule:evenodd;clip-rule:evenodd;fill:#CFE2F3;}
	.st3{fill:none;stroke:#000000;stroke-linejoin:round;stroke-miterlimit:10;}
	.st4{fill-rule:evenodd;clip-rule:evenodd;fill:#EFEFEF;}
	.st5{fill-rule:evenodd;clip-rule:evenodd;}
	.st6{fill-rule:evenodd;clip-rule:evenodd;stroke:#000000;stroke-miterlimit:10;}
	.st7{fill:none;stroke:#000000;stroke-linejoin:round;stroke-miterlimit:10;stroke-dasharray:4,3;}
	.st8{font-family:'MyriadPro-Bold';}
	.st9{font-size:12px;}
	.st10{fill:none;stroke:#000000;stroke-width:0.5;stroke-miterlimit:10;}
</style>
<g>
	<g>
		<defs>
			<rect id="SVGID_1_" y="0" width="1009.9" height="505.8"/>
		</defs>
		<clipPath id="SVGID_2_">
			<use xlink:href="#SVGID_1_"  style="overflow:visible;"/>
		</clipPath>
		<g class="st0">
			<path class="st1" d="M0,0h1009.9v505.8H0V0z"/>
			<path class="st2" d="M5,265.8L5,265.8c0-32.7,26.5-59.1,59.1-59.1l0,0c15.7,0,30.7,6.2,41.8,17.3s17.3,26.1,17.3,41.8l0,0
				c0,32.7-26.5,59.1-59.1,59.1l0,0C31.4,324.9,5,298.4,5,265.8z"/>
			<path class="st3" d="M5,265.8L5,265.8c0-32.7,26.5-59.1,59.1-59.1l0,0c15.7,0,30.7,6.2,41.8,17.3s17.3,26.1,17.3,41.8l0,0
				c0,32.7-26.5,59.1-59.1,59.1l0,0C31.4,324.9,5,298.4,5,265.8z"/>
			<path class="st2" d="M171.2,265.8L171.2,265.8c0-32.7,26.5-59.1,59.1-59.1l0,0c15.7,0,30.7,6.2,41.8,17.3
				c11.1,11.1,17.3,26.1,17.3,41.8l0,0c0,32.7-26.5,59.1-59.1,59.1l0,0C197.6,324.9,171.2,298.4,171.2,265.8z"/>
			<path class="st3" d="M171.2,265.8L171.2,265.8c0-32.7,26.5-59.1,59.1-59.1l0,0c15.7,0,30.7,6.2,41.8,17.3
				c11.1,11.1,17.3,26.1,17.3,41.8l0,0c0,32.7-26.5,59.1-59.1,59.1l0,0C197.6,324.9,171.2,298.4,171.2,265.8z"/>
			<path class="st2" d="M337.4,147.5L337.4,147.5c0-32.7,26.5-59.1,59.1-59.1l0,0c15.7,0,30.7,6.2,41.8,17.3s17.3,26.1,17.3,41.8
				l0,0c0,32.7-26.5,59.1-59.1,59.1l0,0C363.9,206.7,337.4,180.2,337.4,147.5z"/>
			<path class="st3" d="M337.4,147.5L337.4,147.5c0-32.7,26.5-59.1,59.1-59.1l0,0c15.7,0,30.7,6.2,41.8,17.3s17.3,26.1,17.3,41.8
				l0,0c0,32.7-26.5,59.1-59.1,59.1l0,0C363.9,206.7,337.4,180.2,337.4,147.5z"/>
			<path class="st2" d="M337.4,384L337.4,384c0-32.7,26.5-59.1,59.1-59.1l0,0c15.7,0,30.7,6.2,41.8,17.3s17.3,26.1,17.3,41.8l0,0
				c0,32.7-26.5,59.1-59.1,59.1l0,0C363.9,443.1,337.4,416.7,337.4,384z"/>
			<path class="st3" d="M337.4,384L337.4,384c0-32.7,26.5-59.1,59.1-59.1l0,0c15.7,0,30.7,6.2,41.8,17.3s17.3,26.1,17.3,41.8l0,0
				c0,32.7-26.5,59.1-59.1,59.1l0,0C363.9,443.1,337.4,416.7,337.4,384z"/>
			<path class="st2" d="M503.6,147.5L503.6,147.5c0-32.7,26.5-59.1,59.1-59.1l0,0c15.7,0,30.7,6.2,41.8,17.3s17.3,26.1,17.3,41.8
				l0,0c0,32.7-26.5,59.1-59.1,59.1l0,0C530.1,206.7,503.6,180.2,503.6,147.5z"/>
			<path class="st3" d="M503.6,147.5L503.6,147.5c0-32.7,26.5-59.1,59.1-59.1l0,0c15.7,0,30.7,6.2,41.8,17.3s17.3,26.1,17.3,41.8
				l0,0c0,32.7-26.5,59.1-59.1,59.1l0,0C530.1,206.7,503.6,180.2,503.6,147.5z"/>
			<path class="st2" d="M503.6,384L503.6,384c0-32.7,26.5-59.1,59.1-59.1l0,0c15.7,0,30.7,6.2,41.8,17.3s17.3,26.1,17.3,41.8l0,0
				c0,32.7-26.5,59.1-59.1,59.1l0,0C530.1,443.1,503.6,416.7,503.6,384z"/>
			<path class="st3" d="M503.6,384L503.6,384c0-32.7,26.5-59.1,59.1-59.1l0,0c15.7,0,30.7,6.2,41.8,17.3s17.3,26.1,17.3,41.8l0,0
				c0,32.7-26.5,59.1-59.1,59.1l0,0C530.1,443.1,503.6,416.7,503.6,384z"/>
			<path class="st2" d="M669.9,147.5L669.9,147.5c0-32.7,26.5-59.1,59.1-59.1l0,0c15.7,0,30.7,6.2,41.8,17.3s17.3,26.1,17.3,41.8
				l0,0c0,32.7-26.5,59.1-59.1,59.1l0,0C696.3,206.7,669.9,180.2,669.9,147.5z"/>
			<path class="st3" d="M669.9,147.5L669.9,147.5c0-32.7,26.5-59.1,59.1-59.1l0,0c15.7,0,30.7,6.2,41.8,17.3s17.3,26.1,17.3,41.8
				l0,0c0,32.7-26.5,59.1-59.1,59.1l0,0C696.3,206.7,669.9,180.2,669.9,147.5z"/>
			<path class="st2" d="M669.9,384L669.9,384c0-32.7,26.5-59.1,59.1-59.1l0,0c15.7,0,30.7,6.2,41.8,17.3s17.3,26.1,17.3,41.8l0,0
				c0,32.7-26.5,59.1-59.1,59.1l0,0C696.3,443.1,669.9,416.7,669.9,384z"/>
			<path class="st3" d="M669.9,384L669.9,384c0-32.7,26.5-59.1,59.1-59.1l0,0c15.7,0,30.7,6.2,41.8,17.3s17.3,26.1,17.3,41.8l0,0
				c0,32.7-26.5,59.1-59.1,59.1l0,0C696.3,443.1,669.9,416.7,669.9,384z"/>
			<path class="st1" d="M123.2,265.8h48"/>
			<path class="st3" d="M123.2,265.8h48"/>
			<path class="st1" d="M272.1,224l65.3-76.4"/>
			<path class="st3" d="M272.1,224l65.3-76.4"/>
			<path class="st1" d="M272.1,307.6l65.3,76.4"/>
			<path class="st3" d="M272.1,307.6l65.3,76.4"/>
			<path class="st1" d="M455.6,147.5h48"/>
			<path class="st3" d="M455.6,147.5h48"/>
			<path class="st1" d="M455.6,384h48"/>
			<path class="st3" d="M455.6,384h48"/>
			<path class="st1" d="M621.9,384h48"/>
			<path class="st3" d="M621.9,384h48"/>
			<path class="st2" d="M836.1,147.5L836.1,147.5c0-32.7,26.5-59.1,59.1-59.1l0,0c15.7,0,30.7,6.2,41.8,17.3s17.3,26.1,17.3,41.8
				l0,0c0,32.7-26.5,59.1-59.1,59.1l0,0C862.6,206.7,836.1,180.2,836.1,147.5z"/>
			<path class="st3" d="M836.1,147.5L836.1,147.5c0-32.7,26.5-59.1,59.1-59.1l0,0c15.7,0,30.7,6.2,41.8,17.3s17.3,26.1,17.3,41.8
				l0,0c0,32.7-26.5,59.1-59.1,59.1l0,0C862.6,206.7,836.1,180.2,836.1,147.5z"/>
			<path class="st2" d="M836.1,384L836.1,384c0-32.7,26.5-59.1,59.1-59.1l0,0c15.7,0,30.7,6.2,41.8,17.3s17.3,26.1,17.3,41.8l0,0
				c0,32.7-26.5,59.1-59.1,59.1l0,0C862.6,443.1,836.1,416.7,836.1,384z"/>
			<path class="st3" d="M836.1,384L836.1,384c0-32.7,26.5-59.1,59.1-59.1l0,0c15.7,0,30.7,6.2,41.8,17.3s17.3,26.1,17.3,41.8l0,0
				c0,32.7-26.5,59.1-59.1,59.1l0,0C862.6,443.1,836.1,416.7,836.1,384z"/>
			<path class="st1" d="M788.1,384h48"/>
			<path class="st3" d="M788.1,384h48"/>
			<path class="st1" d="M43.1,206.7h42v44.5h-42V206.7z"/>
			<path d="M59.7,226.9c0-1.6,0.2-2.9,0.5-3.9s0.8-1.7,1.5-2.3c0.7-0.5,1.5-0.8,2.5-0.8c0.7,0,1.4,0.1,1.9,0.4
				c0.6,0.3,1,0.7,1.4,1.3s0.6,1.2,0.8,2c0.2,0.8,0.3,1.9,0.3,3.2c0,1.6-0.2,2.9-0.5,3.9s-0.8,1.7-1.5,2.3c-0.6,0.5-1.5,0.8-2.5,0.8
				c-1.3,0-2.3-0.5-3.1-1.4C60.1,231.3,59.7,229.4,59.7,226.9z M61.4,226.9c0,2.2,0.3,3.7,0.8,4.5c0.5,0.7,1.2,1.1,1.9,1.1
				c0.8,0,1.4-0.4,1.9-1.1c0.5-0.8,0.8-2.2,0.8-4.5c0-2.2-0.3-3.7-0.8-4.5c-0.5-0.7-1.2-1.1-2-1.1c-0.8,0-1.4,0.3-1.8,1
				C61.7,223.1,61.4,224.6,61.4,226.9z"/>
			<path class="st1" d="M209.3,206.7h42v44.5h-42V206.7z"/>
			<path d="M232.2,233.6h-1.7V223c-0.4,0.4-0.9,0.8-1.6,1.2c-0.7,0.4-1.2,0.7-1.8,0.9v-1.6c0.9-0.4,1.8-1,2.5-1.6s1.2-1.2,1.5-1.8
				h1.1V233.6z"/>
			<path class="st1" d="M375.5,88.4h42v44.5h-42V88.4z"/>
			<path d="M400.9,113.7v1.6h-9c0-0.4,0.1-0.8,0.2-1.2c0.2-0.6,0.6-1.2,1.1-1.8c0.5-0.6,1.2-1.3,2.2-2.1c1.5-1.2,2.5-2.2,3-2.9
				c0.5-0.7,0.8-1.4,0.8-2c0-0.7-0.2-1.2-0.7-1.7s-1.1-0.7-1.8-0.7c-0.8,0-1.4,0.2-1.9,0.7s-0.7,1.1-0.7,2l-1.7-0.2
				c0.1-1.3,0.6-2.3,1.3-2.9c0.8-0.7,1.8-1,3.1-1c1.3,0,2.3,0.4,3.1,1.1c0.8,0.7,1.1,1.6,1.1,2.7c0,0.5-0.1,1.1-0.3,1.6
				c-0.2,0.5-0.6,1.1-1.1,1.7s-1.4,1.4-2.6,2.4c-1,0.8-1.6,1.4-1.9,1.7c-0.3,0.3-0.5,0.6-0.7,0.9h6.5V113.7z"/>
			<path class="st1" d="M541.7,88.4h42v44.5h-42V88.4z"/>
			<path d="M558.4,111.7l1.7-0.2c0.2,0.9,0.5,1.6,1,2s1,0.6,1.7,0.6c0.8,0,1.5-0.3,2-0.8c0.5-0.6,0.8-1.2,0.8-2s-0.3-1.4-0.8-1.9
				s-1.1-0.8-1.9-0.8c-0.3,0-0.7,0.1-1.2,0.2l0.2-1.5c0.1,0,0.2,0,0.3,0c0.7,0,1.3-0.2,1.9-0.5c0.6-0.4,0.9-0.9,0.9-1.7
				c0-0.6-0.2-1.1-0.6-1.5c-0.4-0.4-0.9-0.6-1.6-0.6c-0.6,0-1.2,0.2-1.6,0.6c-0.4,0.4-0.7,1-0.8,1.8l-1.7-0.3c0.2-1.1,0.7-2,1.4-2.6
				s1.6-0.9,2.7-0.9c0.7,0,1.4,0.2,2,0.5s1.1,0.7,1.4,1.3c0.3,0.6,0.5,1.1,0.5,1.8c0,0.6-0.2,1.1-0.5,1.6s-0.8,0.9-1.4,1.2
				c0.8,0.2,1.4,0.6,1.9,1.2c0.4,0.6,0.7,1.3,0.7,2.2c0,1.2-0.4,2.2-1.3,3c-0.9,0.8-2,1.2-3.3,1.2c-1.2,0-2.2-0.4-3-1.1
				C558.9,113.8,558.5,112.9,558.4,111.7z"/>
			<path class="st1" d="M708,88.4h42v44.5h-42V88.4z"/>
			<path d="M729.9,115.3V112H724v-1.5l6.2-8.8h1.4v8.8h1.8v1.5h-1.8v3.3H729.9z M729.9,110.6v-6.1l-4.3,6.1H729.9z"/>
			<path class="st1" d="M874.2,88.4h42v44.5h-42V88.4z"/>
			<path d="M890.8,111.8l1.8-0.2c0.1,0.9,0.4,1.5,0.9,1.9s1.1,0.6,1.7,0.6c0.8,0,1.5-0.3,2-0.9c0.6-0.6,0.8-1.4,0.8-2.4
				c0-0.9-0.3-1.7-0.8-2.3c-0.5-0.6-1.2-0.8-2.1-0.8c-0.5,0-1,0.1-1.5,0.4c-0.4,0.2-0.8,0.6-1,1l-1.6-0.2l1.3-7h6.8v1.6h-5.4
				l-0.7,3.6c0.8-0.6,1.7-0.8,2.6-0.8c1.2,0,2.2,0.4,3,1.2c0.8,0.8,1.2,1.9,1.2,3.2c0,1.2-0.4,2.3-1.1,3.2c-0.9,1.1-2.1,1.7-3.6,1.7
				c-1.2,0-2.3-0.3-3-1C891.4,113.8,890.9,112.9,890.8,111.8z"/>
			<path class="st1" d="M375.5,324.9h42v44.5h-42V324.9z"/>
			<path d="M400.8,341.5l-1.7,0.1c-0.1-0.7-0.4-1.1-0.6-1.4c-0.4-0.5-1-0.7-1.7-0.7c-0.5,0-1,0.1-1.4,0.4c-0.5,0.4-0.9,0.9-1.3,1.7
				c-0.3,0.7-0.5,1.8-0.5,3.1c0.4-0.6,0.9-1.1,1.5-1.4s1.2-0.5,1.8-0.5c1.1,0,2.1,0.4,2.8,1.2c0.8,0.8,1.2,1.9,1.2,3.2
				c0,0.9-0.2,1.7-0.5,2.4c-0.4,0.7-0.9,1.3-1.5,1.7c-0.6,0.4-1.4,0.6-2.2,0.6c-1.4,0-2.5-0.5-3.4-1.5s-1.3-2.7-1.3-5.1
				c0-2.6,0.5-4.5,1.5-5.7c0.8-1,2-1.6,3.4-1.6c1.1,0,1.9,0.3,2.6,0.9C400.2,339.7,400.7,340.5,400.8,341.5z M394,347.4
				c0,0.6,0.1,1.1,0.4,1.7c0.3,0.5,0.6,0.9,1,1.2c0.4,0.3,0.9,0.4,1.4,0.4c0.7,0,1.3-0.3,1.8-0.8c0.5-0.6,0.8-1.3,0.8-2.3
				c0-0.9-0.3-1.7-0.8-2.2s-1.1-0.8-1.9-0.8s-1.4,0.3-1.9,0.8C394.2,345.8,394,346.5,394,347.4z"/>
			<path class="st1" d="M541.7,324.9h42v44.5h-42V324.9z"/>
			<path d="M558.5,340v-1.6h8.8v1.3c-0.9,0.9-1.7,2.1-2.6,3.7c-0.8,1.5-1.5,3.1-2,4.7c-0.3,1.1-0.5,2.4-0.6,3.7h-1.7
				c0-1.1,0.2-2.4,0.6-3.9c0.4-1.5,1-3,1.7-4.4c0.8-1.4,1.6-2.6,2.4-3.5L558.5,340L558.5,340z"/>
			<path class="st1" d="M708,324.9h42v44.5h-42V324.9z"/>
			<path d="M727.1,344.4c-0.7-0.3-1.2-0.6-1.5-1.1s-0.5-1-0.5-1.7c0-1,0.4-1.8,1.1-2.5c0.7-0.7,1.7-1,2.8-1c1.2,0,2.1,0.3,2.9,1
				c0.7,0.7,1.1,1.5,1.1,2.5c0,0.6-0.2,1.2-0.5,1.7s-0.8,0.8-1.5,1.1c0.8,0.3,1.5,0.7,1.9,1.3c0.4,0.6,0.7,1.3,0.7,2.2
				c0,1.2-0.4,2.1-1.2,2.9s-1.9,1.2-3.3,1.2c-1.3,0-2.4-0.4-3.3-1.2c-0.8-0.8-1.2-1.8-1.2-3c0-0.9,0.2-1.6,0.7-2.2
				C725.7,345.1,726.3,344.7,727.1,344.4z M726.8,341.6c0,0.6,0.2,1.2,0.6,1.6c0.4,0.4,1,0.6,1.6,0.6s1.2-0.2,1.6-0.6
				c0.4-0.4,0.6-0.9,0.6-1.5s-0.2-1.1-0.6-1.5c-0.4-0.4-0.9-0.6-1.6-0.6c-0.6,0-1.2,0.2-1.6,0.6C727,340.5,726.8,341,726.8,341.6z
				 M726.3,347.9c0,0.5,0.1,0.9,0.3,1.4c0.2,0.4,0.6,0.8,1,1s0.9,0.4,1.4,0.4c0.8,0,1.5-0.3,2-0.8s0.8-1.2,0.8-2s-0.3-1.5-0.8-2
				s-1.2-0.8-2-0.8s-1.4,0.3-2,0.8C726.5,346.5,726.3,347.1,726.3,347.9z"/>
			<path class="st1" d="M874.2,324.9h42v44.5h-42V324.9z"/>
			<path d="M891.1,348.7l1.6-0.2c0.1,0.8,0.4,1.3,0.8,1.7c0.4,0.3,0.9,0.5,1.5,0.5c0.5,0,1-0.1,1.3-0.3c0.4-0.2,0.7-0.6,1-1
				s0.5-0.9,0.6-1.6c0.2-0.7,0.3-1.3,0.3-2c0-0.1,0-0.2,0-0.3c-0.3,0.5-0.8,1-1.4,1.3c-0.6,0.3-1.2,0.5-1.9,0.5
				c-1.1,0-2.1-0.4-2.9-1.2c-0.8-0.8-1.2-1.9-1.2-3.2c0-1.4,0.4-2.5,1.2-3.3s1.8-1.3,3.1-1.3c0.9,0,1.7,0.2,2.4,0.7s1.3,1.1,1.7,2
				s0.6,2.2,0.6,3.8c0,1.7-0.2,3.1-0.6,4.2c-0.4,1-0.9,1.8-1.7,2.4c-0.7,0.5-1.6,0.8-2.6,0.8c-1.1,0-1.9-0.3-2.6-0.9
				C891.6,350.6,891.2,349.7,891.1,348.7z M897.9,342.7c0-1-0.3-1.7-0.8-2.3c-0.5-0.6-1.1-0.9-1.8-0.9s-1.4,0.3-1.9,0.9
				c-0.6,0.6-0.8,1.4-0.8,2.3s0.3,1.6,0.8,2.1s1.2,0.8,1.9,0.8c0.8,0,1.4-0.3,1.9-0.8C897.6,344.4,897.9,343.6,897.9,342.7z"/>
			<path class="st4" d="M631.1,164.9h102.4v118.2H631.1V164.9z"/>
			<path class="st3" d="M631.1,164.9h102.4v118.2H631.1V164.9z"/>
			<path d="M648,191.4V180h8.3v1.3h-6.8v3.5h6.3v1.3h-6.3v3.9h7v1.4H648z M657.5,191.4l3-4.3l-2.8-4h1.8l1.3,1.9
				c0.2,0.4,0.4,0.7,0.6,0.9c0.2-0.3,0.4-0.7,0.6-0.9l1.4-2h1.7l-2.9,3.9l3.1,4.4h-1.7l-1.7-2.6l-0.5-0.7l-2.2,3.3h-1.7V191.4z
				 M666.4,194.6v-11.5h1.3v1.1c0.3-0.4,0.6-0.7,1-1c0.4-0.2,0.8-0.3,1.4-0.3c0.7,0,1.3,0.2,1.9,0.5c0.5,0.4,0.9,0.9,1.2,1.5
				c0.3,0.7,0.4,1.4,0.4,2.2c0,0.9-0.2,1.6-0.5,2.3s-0.7,1.2-1.3,1.6c-0.6,0.4-1.2,0.5-1.8,0.5c-0.5,0-0.9-0.1-1.3-0.3
				c-0.4-0.2-0.7-0.4-0.9-0.8v4h-1.4V194.6z M667.7,187.3c0,1.1,0.2,1.9,0.6,2.4c0.4,0.5,1,0.8,1.6,0.8s1.2-0.3,1.6-0.8
				c0.4-0.5,0.7-1.3,0.7-2.5c0-1.1-0.2-1.9-0.7-2.4c-0.4-0.5-1-0.8-1.6-0.8s-1.1,0.3-1.6,0.8C667.9,185.4,667.7,186.2,667.7,187.3z
				 M681,188.7l1.5,0.2c-0.2,0.9-0.7,1.5-1.3,2s-1.4,0.7-2.4,0.7c-1.2,0-2.2-0.4-2.9-1.1c-0.7-0.8-1.1-1.8-1.1-3.1
				c0-1.4,0.4-2.5,1.1-3.3c0.7-0.8,1.7-1.2,2.8-1.2s2,0.4,2.7,1.1c0.7,0.8,1.1,1.8,1.1,3.2c0,0.1,0,0.2,0,0.4h-6.2
				c0.1,0.9,0.3,1.6,0.8,2.1s1,0.7,1.7,0.7c0.5,0,1-0.1,1.3-0.4C680.5,189.8,680.8,189.3,681,188.7z M676.4,186.5h4.6
				c-0.1-0.7-0.2-1.2-0.5-1.6c-0.4-0.5-1-0.8-1.7-0.8c-0.6,0-1.2,0.2-1.6,0.7C676.7,185.2,676.4,185.7,676.4,186.5z M689.6,188.4
				l1.4,0.2c-0.2,0.9-0.5,1.7-1.2,2.2c-0.6,0.5-1.4,0.8-2.3,0.8c-1.1,0-2.1-0.4-2.8-1.1c-0.7-0.8-1-1.8-1-3.2c0-0.9,0.1-1.7,0.4-2.3
				c0.3-0.7,0.8-1.2,1.4-1.5c0.6-0.3,1.3-0.5,2-0.5c0.9,0,1.6,0.2,2.2,0.7c0.6,0.4,0.9,1.1,1.1,1.9l-1.4,0.2c-0.1-0.6-0.4-1-0.7-1.3
				s-0.7-0.4-1.2-0.4c-0.7,0-1.3,0.3-1.7,0.8s-0.7,1.3-0.7,2.4c0,1.1,0.2,1.9,0.6,2.4c0.4,0.5,1,0.8,1.7,0.8c0.6,0,1-0.2,1.4-0.5
				C689.3,189.6,689.5,189.1,689.6,188.4z M695.3,190.1l0.2,1.3c-0.4,0.1-0.8,0.1-1.1,0.1c-0.5,0-0.9-0.1-1.2-0.2
				c-0.3-0.2-0.5-0.4-0.6-0.6c-0.1-0.3-0.2-0.8-0.2-1.7v-4.8h-1v-1.1h1V181l1.4-0.8v2.9h1.4v1.1h-1.4v4.8c0,0.4,0,0.7,0.1,0.8
				s0.1,0.2,0.3,0.3c0.1,0.1,0.3,0.1,0.5,0.1C694.8,190.2,695,190.2,695.3,190.1z M702.3,188.7l1.5,0.2c-0.2,0.9-0.7,1.5-1.3,2
				s-1.4,0.7-2.4,0.7c-1.2,0-2.2-0.4-2.9-1.1c-0.7-0.8-1.1-1.8-1.1-3.1c0-1.4,0.4-2.5,1.1-3.3c0.7-0.8,1.7-1.2,2.8-1.2
				s2,0.4,2.7,1.1c0.7,0.8,1.1,1.8,1.1,3.2c0,0.1,0,0.2,0,0.4h-6.2c0.1,0.9,0.3,1.6,0.8,2.1s1,0.7,1.7,0.7c0.5,0,1-0.1,1.3-0.4
				C701.8,189.8,702.1,189.3,702.3,188.7z M697.7,186.5h4.6c-0.1-0.7-0.2-1.2-0.5-1.6c-0.4-0.5-1-0.8-1.7-0.8
				c-0.6,0-1.2,0.2-1.6,0.7C698,185.2,697.8,185.7,697.7,186.5z M710.9,191.4v-1c-0.5,0.8-1.3,1.2-2.3,1.2c-0.7,0-1.3-0.2-1.8-0.5
				c-0.6-0.4-1-0.9-1.3-1.5c-0.3-0.7-0.5-1.4-0.5-2.3c0-0.8,0.1-1.6,0.4-2.3c0.3-0.7,0.7-1.2,1.3-1.5c0.6-0.4,1.2-0.5,1.9-0.5
				c0.5,0,0.9,0.1,1.3,0.3c0.4,0.2,0.7,0.5,1,0.8V180h1.4v11.5h-1.4V191.4z M706.5,187.3c0,1.1,0.2,1.9,0.7,2.4
				c0.4,0.5,1,0.8,1.6,0.8s1.1-0.3,1.6-0.8c0.4-0.5,0.7-1.3,0.7-2.3c0-1.1-0.2-2-0.7-2.5s-1-0.8-1.6-0.8s-1.1,0.3-1.6,0.8
				S706.5,186.2,706.5,187.3z M714.9,184.7v-1.6h1.6v1.6H714.9z M714.9,191.4v-1.6h1.6v1.6H714.9z"/>
			<path d="M661.1,221v-15h6.7c1.3,0,2.4,0.1,3.1,0.4c0.7,0.3,1.3,0.8,1.7,1.4c0.4,0.7,0.6,1.4,0.6,2.3c0,1.1-0.3,2-1,2.7
				s-1.8,1.2-3.2,1.4c0.5,0.3,0.9,0.5,1.2,0.8c0.6,0.5,1.1,1.2,1.6,2l2.6,4.1h-2.5l-2-3.1c-0.6-0.9-1.1-1.6-1.4-2.1
				c-0.4-0.5-0.7-0.8-1-1s-0.6-0.3-0.9-0.4c-0.2,0-0.6-0.1-1.1-0.1h-2.3v6.7L661.1,221L661.1,221z M663.1,212.6h4.3
				c0.9,0,1.6-0.1,2.1-0.3s0.9-0.5,1.2-0.9s0.4-0.9,0.4-1.4c0-0.7-0.3-1.3-0.8-1.8s-1.3-0.7-2.5-0.7H663L663.1,212.6L663.1,212.6z"
				/>
			<path d="M679.7,227.6v-2.4h-4.4v-1.1l4.6-6.5h1v6.5h1.4v1.1h-1.4v2.4H679.7z M679.7,224.1v-4.5l-3.1,4.5H679.7z"/>
			<path d="M695.6,211.6h-9.9v-1.7h9.9V211.6z M695.6,216.1h-9.9v-1.7h9.9V216.1z M697.9,213c0-1.8,0.2-3.2,0.5-4.3
				c0.4-1.1,0.9-1.9,1.6-2.5c0.7-0.6,1.6-0.9,2.7-0.9c0.8,0,1.5,0.2,2.1,0.5s1.1,0.8,1.5,1.4c0.4,0.6,0.7,1.4,0.9,2.2
				c0.2,0.9,0.3,2.1,0.3,3.6c0,1.8-0.2,3.2-0.5,4.3c-0.4,1.1-0.9,1.9-1.6,2.5c-0.7,0.6-1.6,0.9-2.7,0.9c-1.4,0-2.6-0.5-3.4-1.5
				C698.4,217.9,697.9,215.8,697.9,213z M699.8,213c0,2.5,0.3,4.1,0.9,4.9c0.6,0.8,1.3,1.2,2.1,1.2c0.9,0,1.6-0.4,2.1-1.2
				c0.6-0.8,0.9-2.5,0.9-4.9c0-2.5-0.3-4.1-0.9-4.9c-0.6-0.8-1.3-1.2-2.2-1.2c-0.8,0-1.5,0.4-2,1.1
				C700.1,208.8,699.8,210.5,699.8,213z"/>
			<path d="M657.8,241.3l4.4-11.5h1.6l4.7,11.5h-1.7l-1.3-3.5h-4.8l-1.3,3.5H657.8z M661.1,236.6h3.9l-1.2-3.2
				c-0.4-1-0.6-1.8-0.8-2.4c-0.1,0.7-0.3,1.5-0.6,2.2L661.1,236.6z M675,238.2l1.4,0.2c-0.2,0.9-0.5,1.7-1.2,2.2
				c-0.6,0.5-1.4,0.8-2.3,0.8c-1.1,0-2.1-0.4-2.8-1.1c-0.7-0.8-1-1.8-1-3.2c0-0.9,0.1-1.7,0.4-2.3c0.3-0.7,0.8-1.2,1.4-1.5
				c0.6-0.3,1.3-0.5,2-0.5c0.9,0,1.6,0.2,2.2,0.7c0.6,0.4,0.9,1.1,1.1,1.9l-1.4,0.2c-0.1-0.6-0.4-1-0.7-1.3s-0.7-0.4-1.2-0.4
				c-0.7,0-1.3,0.3-1.7,0.8s-0.7,1.3-0.7,2.4c0,1.1,0.2,1.9,0.6,2.4c0.4,0.5,1,0.8,1.7,0.8c0.6,0,1-0.2,1.4-0.5
				C674.6,239.5,674.9,238.9,675,238.2z M680.6,240l0.2,1.3c-0.4,0.1-0.8,0.1-1.1,0.1c-0.5,0-0.9-0.1-1.2-0.2
				c-0.3-0.2-0.5-0.4-0.6-0.6c-0.1-0.3-0.2-0.8-0.2-1.7v-4.8h-1V233h1v-2.1l1.4-0.8v2.9h1.4v1.1h-1.4v4.8c0,0.4,0,0.7,0.1,0.8
				s0.1,0.2,0.3,0.3c0.1,0.1,0.3,0.1,0.5,0.1S680.4,240.1,680.6,240z M687.4,241.3v-1.2c-0.6,0.9-1.5,1.4-2.6,1.4
				c-0.5,0-0.9-0.1-1.4-0.3c-0.4-0.2-0.7-0.4-0.9-0.7s-0.4-0.6-0.4-1c-0.1-0.3-0.1-0.7-0.1-1.3V233h1.4v4.6c0,0.7,0,1.2,0.1,1.5
				c0.1,0.4,0.3,0.7,0.6,0.9s0.6,0.3,1.1,0.3c0.4,0,0.8-0.1,1.2-0.3s0.6-0.5,0.8-0.9s0.2-0.9,0.2-1.6V233h1.4v8.3H687.4z
				 M696.3,240.3c-0.5,0.4-1,0.8-1.5,1s-1,0.3-1.5,0.3c-0.9,0-1.6-0.2-2.1-0.7c-0.5-0.4-0.7-1-0.7-1.7c0-0.4,0.1-0.8,0.3-1.1
				s0.4-0.6,0.7-0.8s0.6-0.4,1-0.5c0.3-0.1,0.7-0.1,1.3-0.2c1.1-0.1,2-0.3,2.5-0.5c0-0.2,0-0.3,0-0.4c0-0.6-0.1-1-0.4-1.2
				c-0.4-0.3-0.9-0.5-1.6-0.5c-0.7,0-1.1,0.1-1.5,0.4c-0.3,0.2-0.5,0.6-0.7,1.2l-1.4-0.2c0.1-0.6,0.3-1.1,0.6-1.4
				c0.3-0.4,0.7-0.6,1.3-0.8c0.5-0.2,1.2-0.3,1.9-0.3s1.3,0.1,1.7,0.3s0.8,0.4,1,0.6c0.2,0.3,0.4,0.6,0.4,1c0.1,0.2,0.1,0.7,0.1,1.3
				v1.9c0,1.3,0,2.1,0.1,2.5c0.1,0.3,0.2,0.7,0.4,1h-1.5C696.4,241,696.3,240.7,696.3,240.3z M696.2,237.1c-0.5,0.2-1.3,0.4-2.3,0.5
				c-0.6,0.1-1,0.2-1.2,0.3s-0.4,0.3-0.6,0.5c-0.1,0.2-0.2,0.4-0.2,0.7c0,0.4,0.1,0.7,0.4,0.9c0.3,0.3,0.7,0.4,1.3,0.4
				c0.5,0,1-0.1,1.4-0.3s0.7-0.6,0.9-1c0.2-0.3,0.2-0.8,0.2-1.4L696.2,237.1L696.2,237.1z M699.8,241.3v-11.5h1.4v11.5H699.8z
				 M703.7,234.6V233h1.6v1.6H703.7z M703.7,241.3v-1.6h1.6v1.6H703.7z"/>
			<path d="M660.1,265.4v-15h6.7c1.3,0,2.4,0.1,3.1,0.4c0.7,0.3,1.3,0.8,1.7,1.4c0.4,0.7,0.6,1.4,0.6,2.3c0,1.1-0.3,2-1,2.7
				c-0.7,0.7-1.8,1.2-3.2,1.4c0.5,0.3,0.9,0.5,1.2,0.8c0.6,0.5,1.1,1.2,1.6,2l2.6,4.1h-2.5l-2-3.1c-0.6-0.9-1.1-1.6-1.4-2.1
				s-0.7-0.8-1-1s-0.6-0.3-0.9-0.4c-0.2,0-0.6-0.1-1.1-0.1h-2.3v6.7L660.1,265.4L660.1,265.4z M662.1,257h4.3c0.9,0,1.6-0.1,2.1-0.3
				c0.5-0.2,0.9-0.5,1.2-0.9s0.4-0.9,0.4-1.4c0-0.7-0.3-1.3-0.8-1.8s-1.3-0.7-2.5-0.7H662L662.1,257L662.1,257z"/>
			<path d="M678.4,273.4V271H674v-1.1l4.6-6.5h1v6.5h1.4v1.1h-1.4v2.4H678.4z M678.4,269.9v-4.5l-3.1,4.5H678.4z"/>
			<path d="M692.9,256.6H683v-1.7h9.9V256.6z M692.9,261.1H683v-1.7h9.9V261.1z M695.1,261.5l1.9-0.2c0.1,0.9,0.5,1.7,1,2.1
				c0.5,0.5,1.2,0.7,1.9,0.7c0.9,0,1.6-0.3,2.3-1c0.6-0.7,0.9-1.6,0.9-2.7s-0.3-1.9-0.9-2.5c-0.6-0.6-1.4-0.9-2.3-0.9
				c-0.6,0-1.1,0.1-1.6,0.4s-0.9,0.6-1.1,1.1l-1.7-0.2l1.5-7.7h7.5v1.8h-6l-0.8,4c0.9-0.6,1.8-0.9,2.8-0.9c1.3,0,2.4,0.5,3.3,1.4
				c0.9,0.9,1.4,2.1,1.4,3.5s-0.4,2.5-1.2,3.5c-1,1.2-2.3,1.8-4,1.8c-1.4,0-2.5-0.4-3.3-1.1C695.7,263.7,695.2,262.7,695.1,261.5z"
				/>
			<path class="st5" d="M549.5,147.5L549.5,147.5c0-7.3,5.9-13.2,13.2-13.2l0,0c3.5,0,6.9,1.4,9.4,3.9s3.9,5.9,3.9,9.4l0,0
				c0,7.3-5.9,13.2-13.2,13.2l0,0C555.4,160.8,549.5,154.8,549.5,147.5z"/>
			<path class="st3" d="M549.5,147.5L549.5,147.5c0-7.3,5.9-13.2,13.2-13.2l0,0c3.5,0,6.9,1.4,9.4,3.9s3.9,5.9,3.9,9.4l0,0
				c0,7.3-5.9,13.2-13.2,13.2l0,0C555.4,160.8,549.5,154.8,549.5,147.5z"/>
			<path class="st1" d="M499.1,82.9l54.3,55.2"/>
			<path class="st3" d="M499.1,82.9l50.1,51"/>
			<path class="st6" d="M548,135l4.4,2.1l-2-4.4L548,135z"/>
			<path class="st1" d="M433.9,49.4h168.3v30.8H433.9V49.4z"/>
			<path d="M448.2,76.4v-5.8l-5.2-7.8h2.2l2.7,4.1c0.5,0.8,1,1.5,1.4,2.3c0.4-0.7,0.9-1.5,1.5-2.4l2.6-4h2.1l-5.4,7.8v5.8
				C450.1,76.4,448.2,76.4,448.2,76.4z M456,71.4c0-1.8,0.5-3.2,1.5-4.1c0.8-0.7,1.9-1.1,3.1-1.1c1.4,0,2.5,0.4,3.3,1.3
				c0.9,0.9,1.3,2.1,1.3,3.7c0,1.3-0.2,2.3-0.6,3s-0.9,1.3-1.7,1.7c-0.7,0.4-1.5,0.6-2.4,0.6c-1.4,0-2.5-0.4-3.3-1.3
				S456,73.1,456,71.4z M457.7,71.4c0,1.3,0.3,2.2,0.8,2.8s1.2,0.9,2.1,0.9s1.5-0.3,2.1-0.9s0.8-1.6,0.8-2.9c0-1.2-0.3-2.1-0.8-2.8
				s-1.2-0.9-2.1-0.9c-0.8,0-1.5,0.3-2.1,0.9S457.7,70.2,457.7,71.4z M473.4,76.4v-1.5c-0.8,1.1-1.8,1.7-3.1,1.7
				c-0.6,0-1.1-0.1-1.6-0.3c-0.5-0.2-0.9-0.5-1.1-0.8s-0.4-0.7-0.5-1.2c-0.1-0.3-0.1-0.9-0.1-1.6v-6.1h1.7V72c0,0.9,0,1.5,0.1,1.8
				c0.1,0.4,0.3,0.8,0.7,1s0.8,0.4,1.3,0.4s1-0.1,1.4-0.4s0.7-0.6,0.9-1c0.2-0.4,0.3-1.1,0.3-1.9v-5.3h1.7v9.9L473.4,76.4
				L473.4,76.4z M489,75.1c-0.6,0.5-1.2,0.9-1.8,1.1c-0.6,0.2-1.2,0.3-1.8,0.3c-1.1,0-1.9-0.3-2.5-0.8s-0.9-1.2-0.9-2
				c0-0.5,0.1-0.9,0.3-1.3s0.5-0.7,0.9-1c0.4-0.2,0.8-0.4,1.2-0.5c0.3-0.1,0.8-0.2,1.5-0.3c1.4-0.2,2.3-0.4,3-0.6c0-0.2,0-0.4,0-0.4
				c0-0.7-0.2-1.2-0.5-1.4c-0.4-0.4-1.1-0.6-1.9-0.6s-1.4,0.1-1.7,0.4s-0.7,0.8-0.8,1.5l-1.6-0.2c0.2-0.7,0.4-1.3,0.7-1.7
				c0.3-0.4,0.8-0.8,1.5-1c0.6-0.2,1.4-0.4,2.3-0.4c0.8,0,1.5,0.1,2,0.3c0.5,0.2,0.9,0.4,1.2,0.8s0.4,0.7,0.5,1.1
				c0.1,0.3,0.1,0.8,0.1,1.5v2.2c0,1.6,0,2.5,0.1,3c0.1,0.4,0.2,0.8,0.4,1.2h-1.8C489.1,76,489,75.6,489,75.1z M488.8,71.4
				c-0.6,0.2-1.5,0.4-2.7,0.6c-0.7,0.1-1.2,0.2-1.5,0.3s-0.5,0.3-0.7,0.5s-0.2,0.5-0.2,0.8c0,0.4,0.2,0.8,0.5,1.1
				c0.3,0.3,0.8,0.4,1.5,0.4c0.6,0,1.2-0.1,1.7-0.4s0.9-0.7,1.1-1.2c0.2-0.4,0.3-0.9,0.3-1.7L488.8,71.4L488.8,71.4z M492.9,76.4
				v-9.9h1.5V68c0.4-0.7,0.7-1.2,1.1-1.4c0.3-0.2,0.7-0.3,1.1-0.3c0.6,0,1.1,0.2,1.7,0.5l-0.6,1.5c-0.4-0.2-0.8-0.4-1.2-0.4
				c-0.4,0-0.7,0.1-1,0.3c-0.3,0.2-0.5,0.5-0.6,0.9c-0.2,0.6-0.3,1.2-0.3,2v5.2h-1.7V76.4z M505.9,73.2l1.7,0.2
				c-0.3,1-0.8,1.8-1.5,2.3c-0.7,0.6-1.7,0.8-2.8,0.8c-1.4,0-2.6-0.4-3.4-1.3s-1.3-2.1-1.3-3.7c0-1.7,0.4-2.9,1.3-3.9
				c0.9-0.9,2-1.4,3.3-1.4s2.4,0.4,3.2,1.3c0.8,0.9,1.2,2.2,1.3,3.8c0,0.1,0,0.2,0,0.4h-7.3c0.1,1.1,0.4,1.9,0.9,2.5
				c0.6,0.6,1.2,0.9,2.1,0.9c0.6,0,1.1-0.2,1.5-0.5C505.2,74.4,505.6,73.9,505.9,73.2z M500.4,70.5h5.5c-0.1-0.8-0.3-1.4-0.6-1.9
				c-0.5-0.6-1.2-1-2.1-1c-0.8,0-1.4,0.3-1.9,0.8C500.7,68.9,500.4,69.6,500.4,70.5z M514.7,76.4V62.8h1.7v4.9
				c0.8-0.9,1.8-1.4,3-1.4c0.7,0,1.4,0.1,1.9,0.4s0.9,0.7,1.2,1.2c0.2,0.5,0.4,1.2,0.4,2.2v6.3H521v-6.3c0-0.8-0.2-1.4-0.5-1.8
				c-0.4-0.4-0.9-0.6-1.5-0.6c-0.5,0-1,0.1-1.4,0.4s-0.7,0.6-0.9,1s-0.3,1-0.3,1.8v5.4h-1.7V76.4z M531.8,73.2l1.7,0.2
				c-0.3,1-0.8,1.8-1.5,2.3c-0.7,0.6-1.7,0.8-2.8,0.8c-1.4,0-2.6-0.4-3.4-1.3s-1.3-2.1-1.3-3.7c0-1.7,0.4-2.9,1.3-3.9
				c0.9-0.9,2-1.4,3.3-1.4s2.4,0.4,3.2,1.3s1.3,2.2,1.3,3.8c0,0.1,0,0.2,0,0.4h-7.3c0.1,1.1,0.4,1.9,0.9,2.5s1.2,0.9,2.1,0.9
				c0.6,0,1.1-0.2,1.5-0.5C531.2,74.4,531.5,73.9,531.8,73.2z M526.3,70.5h5.5c-0.1-0.8-0.3-1.4-0.6-1.9c-0.5-0.6-1.2-1-2.1-1
				c-0.8,0-1.4,0.3-1.9,0.8C526.6,68.9,526.4,69.6,526.3,70.5z M535.4,76.4v-9.9h1.5V68c0.4-0.7,0.7-1.2,1.1-1.4
				c0.3-0.2,0.7-0.3,1.1-0.3c0.6,0,1.1,0.2,1.7,0.5l-0.6,1.5c-0.4-0.2-0.8-0.4-1.2-0.4s-0.7,0.1-1,0.3c-0.3,0.2-0.5,0.5-0.6,0.9
				c-0.2,0.6-0.3,1.2-0.3,2v5.2h-1.7V76.4z M548.4,73.2l1.7,0.2c-0.3,1-0.8,1.8-1.5,2.3c-0.7,0.6-1.7,0.8-2.8,0.8
				c-1.4,0-2.6-0.4-3.4-1.3s-1.3-2.1-1.3-3.7c0-1.7,0.4-2.9,1.3-3.9c0.9-0.9,2-1.4,3.3-1.4s2.4,0.4,3.2,1.3s1.3,2.2,1.3,3.8
				c0,0.1,0,0.2,0,0.4h-7.3c0.1,1.1,0.4,1.9,0.9,2.5s1.2,0.9,2.1,0.9c0.6,0,1.1-0.2,1.5-0.5C547.8,74.4,548.1,73.9,548.4,73.2z
				 M542.9,70.5h5.5c-0.1-0.8-0.3-1.4-0.6-1.9c-0.5-0.6-1.2-1-2.1-1c-0.8,0-1.4,0.3-1.9,0.8C543.2,68.9,542.9,69.6,542.9,70.5z
				 M552.9,73l-0.5-7.2v-3h2.1v3L554,73H552.9z M552.5,76.4v-1.9h1.9v1.9H552.5z"/>
			<path class="st1" d="M621.9,147.5h48"/>
			<path class="st3" d="M621.9,147.5h42"/>
			<path class="st6" d="M663.9,149.2l4.5-1.7l-4.5-1.7V149.2z"/>
			<path class="st1" d="M788.1,147.5h48"/>
			<path class="st3" d="M788.1,147.5h42"/>
			<path class="st6" d="M830.1,149.2l4.5-1.7l-4.5-1.7V149.2z"/>
			<path class="st1" d="M954.3,147.5h50.6"/>
			<path class="st7" d="M954.3,147.5h50.6"/>
			<path class="st1" d="M954.3,384h50.6"/>
			<path class="st7" d="M954.3,384h50.6"/>
			<path class="st1" d="M733.5,224H774"/>
			<path class="st3" d="M733.5,224H768"/>
			<path class="st6" d="M768,225.7l4.5-1.7l-4.5-1.7V225.7z"/>
			<path class="st4" d="M774,193.1h102.4v70.2H774V193.1z"/>
			<path class="st3" d="M774,193.1h102.4v70.2H774V193.1z"/>
			<path d="M796,217.4V206h1.5v11.5H796V217.4z M800,217.4v-8.3h1.3v1.2c0.6-0.9,1.5-1.4,2.6-1.4c0.5,0,1,0.1,1.4,0.3
				s0.7,0.4,0.9,0.7s0.4,0.6,0.4,1c0.1,0.3,0.1,0.7,0.1,1.4v5.1h-1.4v-5c0-0.6-0.1-1-0.2-1.3c-0.1-0.3-0.3-0.5-0.6-0.7
				s-0.6-0.3-1-0.3c-0.6,0-1.1,0.2-1.6,0.6c-0.4,0.4-0.6,1.1-0.6,2.2v4.5H800z M814.3,214.4l1.4,0.2c-0.2,0.9-0.5,1.7-1.2,2.2
				c-0.6,0.5-1.4,0.8-2.3,0.8c-1.1,0-2.1-0.4-2.8-1.1c-0.7-0.8-1-1.8-1-3.2c0-0.9,0.1-1.7,0.4-2.3c0.3-0.7,0.8-1.2,1.4-1.5
				c0.6-0.3,1.3-0.5,2-0.5c0.9,0,1.6,0.2,2.2,0.7c0.6,0.4,0.9,1.1,1.1,1.9l-1.4,0.2c-0.1-0.6-0.4-1-0.7-1.3s-0.7-0.4-1.2-0.4
				c-0.7,0-1.3,0.3-1.7,0.8s-0.7,1.3-0.7,2.4c0,1.1,0.2,1.9,0.6,2.4c0.4,0.5,1,0.8,1.7,0.8c0.6,0,1-0.2,1.4-0.5
				C814,215.6,814.2,215.1,814.3,214.4z M816.9,217.4v-8.3h1.3v1.3c0.3-0.6,0.6-1,0.9-1.2c0.3-0.2,0.6-0.3,0.9-0.3
				c0.5,0,0.9,0.2,1.4,0.5l-0.5,1.3c-0.3-0.2-0.7-0.3-1-0.3s-0.6,0.1-0.8,0.3s-0.4,0.4-0.5,0.8c-0.2,0.5-0.2,1-0.2,1.6v4.3
				L816.9,217.4L816.9,217.4z M827.9,214.8l1.5,0.2c-0.2,0.9-0.7,1.5-1.3,2s-1.4,0.7-2.4,0.7c-1.2,0-2.2-0.4-2.9-1.1
				c-0.7-0.8-1.1-1.8-1.1-3.1c0-1.4,0.4-2.5,1.1-3.3c0.7-0.8,1.7-1.2,2.8-1.2s2,0.4,2.7,1.1c0.7,0.8,1.1,1.8,1.1,3.2
				c0,0.1,0,0.2,0,0.4h-6.2c0.1,0.9,0.3,1.6,0.8,2.1s1,0.7,1.7,0.7c0.5,0,1-0.1,1.3-0.4C827.4,215.8,827.7,215.4,827.9,214.8z
				 M823.3,212.5h4.6c-0.1-0.7-0.2-1.2-0.5-1.6c-0.4-0.5-1-0.8-1.7-0.8c-0.6,0-1.2,0.2-1.6,0.7C823.6,211.2,823.4,211.8,823.3,212.5
				z M836.6,216.4c-0.5,0.4-1,0.8-1.5,1s-1,0.3-1.5,0.3c-0.9,0-1.6-0.2-2.1-0.7c-0.5-0.4-0.7-1-0.7-1.7c0-0.4,0.1-0.8,0.3-1.1
				s0.4-0.6,0.7-0.8s0.6-0.4,1-0.5c0.3-0.1,0.7-0.1,1.3-0.2c1.1-0.1,2-0.3,2.5-0.5c0-0.2,0-0.3,0-0.4c0-0.6-0.1-1-0.4-1.2
				c-0.4-0.3-0.9-0.5-1.6-0.5c-0.7,0-1.1,0.1-1.5,0.4c-0.3,0.2-0.5,0.6-0.7,1.2l-1.4-0.2c0.1-0.6,0.3-1.1,0.6-1.4
				c0.3-0.4,0.7-0.6,1.3-0.8c0.5-0.2,1.2-0.3,1.9-0.3s1.3,0.1,1.7,0.3s0.8,0.4,1,0.6c0.2,0.3,0.4,0.6,0.4,1c0.1,0.2,0.1,0.7,0.1,1.3
				v1.9c0,1.3,0,2.1,0.1,2.5c0.1,0.3,0.2,0.7,0.4,1H837C836.7,217.1,836.6,216.8,836.6,216.4z M836.4,213.3
				c-0.5,0.2-1.3,0.4-2.3,0.5c-0.6,0.1-1,0.2-1.2,0.3s-0.4,0.3-0.6,0.5c-0.1,0.2-0.2,0.4-0.2,0.7c0,0.4,0.1,0.7,0.4,0.9
				c0.3,0.3,0.7,0.4,1.3,0.4c0.5,0,1-0.1,1.4-0.3s0.7-0.6,0.9-1c0.2-0.3,0.2-0.8,0.2-1.4L836.4,213.3L836.4,213.3z M839.5,215
				l1.4-0.2c0.1,0.6,0.3,1,0.6,1.3c0.4,0.3,0.9,0.4,1.5,0.4s1.1-0.1,1.4-0.4c0.3-0.3,0.5-0.6,0.5-0.9c0-0.3-0.1-0.6-0.4-0.8
				c-0.2-0.1-0.7-0.3-1.4-0.5c-1-0.3-1.7-0.5-2.2-0.7c-0.4-0.2-0.7-0.5-0.9-0.8s-0.3-0.7-0.3-1.1c0-0.4,0.1-0.7,0.3-1
				s0.4-0.6,0.7-0.8c0.2-0.2,0.5-0.3,0.9-0.4c0.4-0.1,0.8-0.2,1.2-0.2c0.7,0,1.2,0.1,1.7,0.3s0.8,0.4,1.1,0.8
				c0.2,0.3,0.4,0.7,0.5,1.3l-1.4,0.2c-0.1-0.4-0.2-0.8-0.5-1s-0.7-0.4-1.3-0.4s-1.1,0.1-1.4,0.3c-0.3,0.2-0.4,0.5-0.4,0.7
				s0.1,0.4,0.2,0.5c0.1,0.1,0.3,0.3,0.5,0.4c0.1,0.1,0.6,0.2,1.3,0.4c1,0.3,1.7,0.5,2.1,0.7c0.4,0.2,0.7,0.4,0.9,0.7
				s0.3,0.7,0.3,1.2s-0.1,0.9-0.4,1.3c-0.3,0.4-0.7,0.7-1.2,1c-0.5,0.2-1.1,0.3-1.7,0.3c-1.1,0-1.9-0.2-2.5-0.7
				C840,216.5,839.6,215.8,839.5,215z M853.7,214.8l1.5,0.2c-0.2,0.9-0.7,1.5-1.3,2s-1.4,0.7-2.4,0.7c-1.2,0-2.2-0.4-2.9-1.1
				c-0.7-0.8-1.1-1.8-1.1-3.1c0-1.4,0.4-2.5,1.1-3.3c0.7-0.8,1.7-1.2,2.8-1.2s2,0.4,2.7,1.1c0.7,0.8,1.1,1.8,1.1,3.2
				c0,0.1,0,0.2,0,0.4H849c0.1,0.9,0.3,1.6,0.8,2.1s1,0.7,1.7,0.7c0.5,0,1-0.1,1.3-0.4C853.2,215.8,853.5,215.4,853.7,214.8z
				 M849.1,212.5h4.6c-0.1-0.7-0.2-1.2-0.5-1.6c-0.4-0.5-1-0.8-1.7-0.8c-0.6,0-1.2,0.2-1.6,0.7C849.4,211.2,849.2,211.8,849.1,212.5
				z"/>
			<path d="M820.1,241.6l-5.8-15h2.2l3.9,10.9c0.3,0.9,0.6,1.7,0.8,2.5c0.2-0.8,0.5-1.6,0.8-2.5l4.1-10.9h2l-5.9,15H820.1z"/>
			<path d="M829,246.9l1.2-0.2c0.1,0.7,0.4,1.2,0.7,1.5s0.8,0.5,1.3,0.5c0.6,0,1.1-0.2,1.5-0.6c0.4-0.4,0.6-0.9,0.6-1.5
				s-0.2-1-0.6-1.4c-0.4-0.4-0.8-0.5-1.4-0.5c-0.2,0-0.5,0-0.9,0.1l0.1-1.1c0.1,0,0.1,0,0.2,0c0.5,0,1-0.1,1.4-0.4
				c0.4-0.3,0.6-0.7,0.6-1.3c0-0.4-0.2-0.8-0.5-1.1s-0.7-0.5-1.2-0.5s-0.9,0.2-1.2,0.5s-0.5,0.7-0.6,1.3L829,242
				c0.1-0.8,0.5-1.5,1-1.9c0.5-0.5,1.2-0.7,2-0.7c0.6,0,1.1,0.1,1.5,0.4c0.5,0.2,0.8,0.5,1,1c0.3,0.4,0.4,0.8,0.4,1.3
				c0,0.4-0.1,0.8-0.3,1.2s-0.6,0.6-1,0.9c0.6,0.1,1.1,0.4,1.4,0.8c0.3,0.4,0.5,1,0.5,1.6c0,0.9-0.3,1.6-1,2.2
				c-0.6,0.6-1.4,0.9-2.4,0.9c-0.9,0-1.6-0.3-2.2-0.8C829.4,248.4,829,247.7,829,246.9z"/>
			<path class="st1" d="M583.8,49.4H649v47.5h-65.3L583.8,49.4L583.8,49.4z"/>
			<path d="M601.2,80.7l-5.8-15h2.2l3.9,10.9c0.3,0.9,0.6,1.7,0.8,2.5c0.2-0.8,0.5-1.6,0.8-2.5l4.1-10.9h2l-5.9,15H601.2z"/>
			<path d="M610.1,86l1.2-0.2c0.1,0.7,0.4,1.2,0.7,1.5s0.8,0.5,1.3,0.5c0.6,0,1.1-0.2,1.5-0.6s0.6-0.9,0.6-1.5s-0.2-1-0.6-1.4
				c-0.4-0.4-0.8-0.5-1.4-0.5c-0.2,0-0.5,0-0.9,0.1l0.1-1.1c0.1,0,0.1,0,0.2,0c0.5,0,1-0.1,1.4-0.4s0.6-0.7,0.6-1.3
				c0-0.4-0.2-0.8-0.5-1.1c-0.3-0.3-0.7-0.5-1.2-0.5s-0.9,0.2-1.2,0.5s-0.5,0.7-0.6,1.3l-1.2-0.2c0.1-0.8,0.5-1.5,1-1.9
				c0.5-0.5,1.2-0.7,2-0.7c0.6,0,1.1,0.1,1.5,0.4c0.5,0.2,0.8,0.5,1,1c0.3,0.4,0.4,0.8,0.4,1.3c0,0.4-0.1,0.8-0.3,1.2
				s-0.6,0.6-1,0.9c0.6,0.1,1.1,0.4,1.4,0.8c0.3,0.4,0.5,1,0.5,1.6c0,0.9-0.3,1.6-1,2.2c-0.6,0.6-1.4,0.9-2.4,0.9
				c-0.9,0-1.6-0.3-2.2-0.8C610.5,87.5,610.2,86.8,610.1,86z"/>
			<path d="M622.3,85.1c-1-1.3-1.9-2.8-2.6-4.5c-0.7-1.7-1.1-3.5-1.1-5.3c0-1.6,0.3-3.2,0.8-4.7c0.6-1.7,1.6-3.4,2.8-5.2h1.3
				c-0.8,1.4-1.4,2.4-1.6,3c-0.4,0.9-0.7,1.9-1,3c-0.3,1.3-0.4,2.6-0.4,3.9c0,3.3,1,6.6,3.1,9.9h-1.3V85.1z M629.9,79l0.3,1.6
				c-0.5,0.1-1,0.2-1.4,0.2c-0.7,0-1.2-0.1-1.6-0.3c-0.4-0.2-0.6-0.5-0.8-0.8c-0.1-0.3-0.2-1.1-0.2-2.2v-6.3h-1.3v-1.4h1.3v-2.7
				L628,66v3.8h1.9v1.4H628v6.4c0,0.5,0,0.9,0.1,1s0.2,0.3,0.3,0.4s0.4,0.1,0.6,0.1C629.3,79.1,629.6,79,629.9,79z M633,85.1h-1.3
				c2.1-3.3,3.1-6.6,3.1-9.9c0-1.3-0.2-2.6-0.5-3.8c-0.2-1-0.6-2-1-3c-0.3-0.6-0.8-1.6-1.7-3.1h1.3c1.3,1.7,2.2,3.4,2.8,5.2
				c0.5,1.5,0.8,3.1,0.8,4.7c0,1.8-0.4,3.6-1.1,5.3C634.9,82.3,634,83.8,633,85.1z"/>
			<text transform="matrix(1 0 0 1 662.1891 205.9828)" class="st8 st9">^</text>
			<text transform="matrix(1 0 0 1 662.4177 205.9832)" class="st10 st8 st9">^</text>
		</g>
	</g>
</g>
</svg>
