<?xml version="1.0" standalone="yes"?>

<svg version="1.1" viewBox="0.0 0.0 1009.8608923884515 505.81102362204723" fill="none" stroke="none" stroke-linecap="square" stroke-miterlimit="10" xmlns="http://www.w3.org/2000/svg" xmlns:xlink="http://www.w3.org/1999/xlink"><clipPath id="p.0"><path d="m0 0l1009.8609 0l0 505.81104l-1009.8609 0l0 -505.81104z" clip-rule="nonzero"></path></clipPath><g clip-path="url(#p.0)"><path fill="#000000" fill-opacity="0.0" d="m0 0l1009.8609 0l0 505.81104l-1009.8609 0z" fill-rule="evenodd"></path><path fill="#cfe2f3" d="m4.9514437 265.77167l0 0c0 -32.65004 26.468079 -59.11812 59.118114 -59.11812l0 0c15.679092 0 30.716019 6.228485 41.80281 17.315292c11.0868 11.086792 17.3153 26.123718 17.3153 41.802826l0 0c0 32.650024 -26.468086 59.118103 -59.11811 59.118103l0 0c-32.650032 0 -59.118114 -26.468079 -59.118114 -59.118103z" fill-rule="evenodd"></path><path stroke="#000000" stroke-width="1.0" stroke-linejoin="round" stroke-linecap="butt" d="m4.9514437 265.77167l0 0c0 -32.65004 26.468079 -59.11812 59.118114 -59.11812l0 0c15.679092 0 30.716019 6.228485 41.80281 17.315292c11.0868 11.086792 17.3153 26.123718 17.3153 41.802826l0 0c0 32.650024 -26.468086 59.118103 -59.11811 59.118103l0 0c-32.650032 0 -59.118114 -26.468079 -59.118114 -59.118103z" fill-rule="evenodd"></path><path fill="#cfe2f3" d="m171.17717 265.77167l0 0c0 -32.65004 26.468079 -59.11812 59.118103 -59.11812l0 0c15.679108 0 30.716019 6.228485 41.80281 17.315292c11.086792 11.086792 17.315308 26.123718 17.315308 41.802826l0 0c0 32.650024 -26.468079 59.118103 -59.11812 59.118103l0 0c-32.650024 0 -59.118103 -26.468079 -59.118103 -59.118103z" fill-rule="evenodd"></path><path stroke="#000000" stroke-width="1.0" stroke-linejoin="round" stroke-linecap="butt" d="m171.17717 265.77167l0 0c0 -32.65004 26.468079 -59.11812 59.118103 -59.11812l0 0c15.679108 0 30.716019 6.228485 41.80281 17.315292c11.086792 11.086792 17.315308 26.123718 17.315308 41.802826l0 0c0 32.650024 -26.468079 59.118103 -59.11812 59.118103l0 0c-32.650024 0 -59.118103 -26.468079 -59.118103 -59.118103z" fill-rule="evenodd"></path><path fill="#cfe2f3" d="m337.4029 147.53543l0 0c0 -32.650032 26.468079 -59.11811 59.118103 -59.11811l0 0c15.679108 0 30.716034 6.2285004 41.802826 17.3153c11.086792 11.086792 17.315277 26.123718 17.315277 41.80281l0 0c0 32.65004 -26.468079 59.11812 -59.118103 59.11812l0 0c-32.650024 0 -59.118103 -26.468079 -59.118103 -59.11812z" fill-rule="evenodd"></path><path stroke="#000000" stroke-width="1.0" stroke-linejoin="round" stroke-linecap="butt" d="m337.4029 147.53543l0 0c0 -32.650032 26.468079 -59.11811 59.118103 -59.11811l0 0c15.679108 0 30.716034 6.2285004 41.802826 17.3153c11.086792 11.086792 17.315277 26.123718 17.315277 41.80281l0 0c0 32.65004 -26.468079 59.11812 -59.118103 59.11812l0 0c-32.650024 0 -59.118103 -26.468079 -59.118103 -59.11812z" fill-rule="evenodd"></path><path fill="#cfe2f3" d="m337.4029 384.00787l0 0c0 -32.650024 26.468079 -59.118103 59.118103 -59.118103l0 0c15.679108 0 30.716034 6.228485 41.802826 17.315277c11.086792 11.086792 17.315277 26.123718 17.315277 41.802826l0 0c0 32.650024 -26.468079 59.118103 -59.118103 59.118103l0 0c-32.650024 0 -59.118103 -26.468079 -59.118103 -59.118103z" fill-rule="evenodd"></path><path stroke="#000000" stroke-width="1.0" stroke-linejoin="round" stroke-linecap="butt" d="m337.4029 384.00787l0 0c0 -32.650024 26.468079 -59.118103 59.118103 -59.118103l0 0c15.679108 0 30.716034 6.228485 41.802826 17.315277c11.086792 11.086792 17.315277 26.123718 17.315277 41.802826l0 0c0 32.650024 -26.468079 59.118103 -59.118103 59.118103l0 0c-32.650024 0 -59.118103 -26.468079 -59.118103 -59.118103z" fill-rule="evenodd"></path><path fill="#cfe2f3" d="m503.6286 147.53543l0 0c0 -32.650032 26.468079 -59.11811 59.118103 -59.11811l0 0c15.679138 0 30.716064 6.2285004 41.802856 17.3153c11.086792 11.086792 17.315247 26.123718 17.315247 41.80281l0 0c0 32.65004 -26.468079 59.11812 -59.118103 59.11812l0 0c-32.650024 0 -59.118103 -26.468079 -59.118103 -59.11812z" fill-rule="evenodd"></path><path stroke="#000000" stroke-width="1.0" stroke-linejoin="round" stroke-linecap="butt" d="m503.6286 147.53543l0 0c0 -32.650032 26.468079 -59.11811 59.118103 -59.11811l0 0c15.679138 0 30.716064 6.2285004 41.802856 17.3153c11.086792 11.086792 17.315247 26.123718 17.315247 41.80281l0 0c0 32.65004 -26.468079 59.11812 -59.118103 59.11812l0 0c-32.650024 0 -59.118103 -26.468079 -59.118103 -59.11812z" fill-rule="evenodd"></path><path fill="#cfe2f3" d="m503.6286 384.00787l0 0c0 -32.650024 26.468079 -59.118103 59.118103 -59.118103l0 0c15.679138 0 30.716064 6.228485 41.802856 17.315277c11.086792 11.086792 17.315247 26.123718 17.315247 41.802826l0 0c0 32.650024 -26.468079 59.118103 -59.118103 59.118103l0 0c-32.650024 0 -59.118103 -26.468079 -59.118103 -59.118103z" fill-rule="evenodd"></path><path stroke="#000000" stroke-width="1.0" stroke-linejoin="round" stroke-linecap="butt" d="m503.6286 384.00787l0 0c0 -32.650024 26.468079 -59.118103 59.118103 -59.118103l0 0c15.679138 0 30.716064 6.228485 41.802856 17.315277c11.086792 11.086792 17.315247 26.123718 17.315247 41.802826l0 0c0 32.650024 -26.468079 59.118103 -59.118103 59.118103l0 0c-32.650024 0 -59.118103 -26.468079 -59.118103 -59.118103z" fill-rule="evenodd"></path><path fill="#cfe2f3" d="m669.8543 147.53543l0 0c0 -32.650032 26.468079 -59.11811 59.118103 -59.11811l0 0c15.679138 0 30.716064 6.2285004 41.802856 17.3153c11.086792 11.086792 17.315308 26.123718 17.315308 41.80281l0 0c0 32.65004 -26.468079 59.11812 -59.118164 59.11812l0 0c-32.650024 0 -59.118103 -26.468079 -59.118103 -59.11812z" fill-rule="evenodd"></path><path stroke="#000000" stroke-width="1.0" stroke-linejoin="round" stroke-linecap="butt" d="m669.8543 147.53543l0 0c0 -32.650032 26.468079 -59.11811 59.118103 -59.11811l0 0c15.679138 0 30.716064 6.2285004 41.802856 17.3153c11.086792 11.086792 17.315308 26.123718 17.315308 41.80281l0 0c0 32.65004 -26.468079 59.11812 -59.118164 59.11812l0 0c-32.650024 0 -59.118103 -26.468079 -59.118103 -59.11812z" fill-rule="evenodd"></path><path fill="#cfe2f3" d="m669.8543 384.00787l0 0c0 -32.650024 26.468079 -59.118103 59.118103 -59.118103l0 0c15.679138 0 30.716064 6.228485 41.802856 17.315277c11.086792 11.086792 17.315308 26.123718 17.315308 41.802826l0 0c0 32.650024 -26.468079 59.118103 -59.118164 59.118103l0 0c-32.650024 0 -59.118103 -26.468079 -59.118103 -59.118103z" fill-rule="evenodd"></path><path stroke="#000000" stroke-width="1.0" stroke-linejoin="round" stroke-linecap="butt" d="m669.8543 384.00787l0 0c0 -32.650024 26.468079 -59.118103 59.118103 -59.118103l0 0c15.679138 0 30.716064 6.228485 41.802856 17.315277c11.086792 11.086792 17.315308 26.123718 17.315308 41.802826l0 0c0 32.650024 -26.468079 59.118103 -59.118164 59.118103l0 0c-32.650024 0 -59.118103 -26.468079 -59.118103 -59.118103z" fill-rule="evenodd"></path><path fill="#000000" fill-opacity="0.0" d="m123.18767 265.77167l48.0 0" fill-rule="evenodd"></path><path stroke="#000000" stroke-width="1.0" stroke-linejoin="round" stroke-linecap="butt" d="m123.18767 265.77167l48.0 0" fill-rule="evenodd"></path><path fill="#000000" fill-opacity="0.0" d="m272.09808 223.96884l65.29135 -76.44095" fill-rule="evenodd"></path><path stroke="#000000" stroke-width="1.0" stroke-linejoin="round" stroke-linecap="butt" d="m272.09808 223.96884l65.29135 -76.44095" fill-rule="evenodd"></path><path fill="#000000" fill-opacity="0.0" d="m272.09808 307.57446l65.29135 76.44095" fill-rule="evenodd"></path><path stroke="#000000" stroke-width="1.0" stroke-linejoin="round" stroke-linecap="butt" d="m272.09808 307.57446l65.29135 76.44095" fill-rule="evenodd"></path><path fill="#000000" fill-opacity="0.0" d="m455.6391 147.53543l48.0 0" fill-rule="evenodd"></path><path stroke="#000000" stroke-width="1.0" stroke-linejoin="round" stroke-linecap="butt" d="m455.6391 147.53543l48.0 0" fill-rule="evenodd"></path><path fill="#000000" fill-opacity="0.0" d="m455.6391 384.00787l48.0 0" fill-rule="evenodd"></path><path stroke="#000000" stroke-width="1.0" stroke-linejoin="round" stroke-linecap="butt" d="m455.6391 384.00787l48.0 0" fill-rule="evenodd"></path><path fill="#000000" fill-opacity="0.0" d="m621.8648 384.00787l48.0 0" fill-rule="evenodd"></path><path stroke="#000000" stroke-width="1.0" stroke-linejoin="round" stroke-linecap="butt" d="m621.8648 384.00787l48.0 0" fill-rule="evenodd"></path><path fill="#cfe2f3" d="m836.0906 147.53543l0 0c0 -32.650032 26.468079 -59.11811 59.118103 -59.11811l0 0c15.679077 0 30.716003 6.2285004 41.802795 17.3153c11.086792 11.086792 17.315308 26.123718 17.315308 41.80281l0 0c0 32.65004 -26.468079 59.11812 -59.118103 59.11812l0 0c-32.650024 0 -59.118103 -26.468079 -59.118103 -59.11812z" fill-rule="evenodd"></path><path stroke="#000000" stroke-width="1.0" stroke-linejoin="round" stroke-linecap="butt" d="m836.0906 147.53543l0 0c0 -32.650032 26.468079 -59.11811 59.118103 -59.11811l0 0c15.679077 0 30.716003 6.2285004 41.802795 17.3153c11.086792 11.086792 17.315308 26.123718 17.315308 41.80281l0 0c0 32.65004 -26.468079 59.11812 -59.118103 59.11812l0 0c-32.650024 0 -59.118103 -26.468079 -59.118103 -59.11812z" fill-rule="evenodd"></path><path fill="#cfe2f3" d="m836.0906 384.00787l0 0c0 -32.650024 26.468079 -59.118103 59.118103 -59.118103l0 0c15.679077 0 30.716003 6.228485 41.802795 17.315277c11.086792 11.086792 17.315308 26.123718 17.315308 41.802826l0 0c0 32.650024 -26.468079 59.118103 -59.118103 59.118103l0 0c-32.650024 0 -59.118103 -26.468079 -59.118103 -59.118103z" fill-rule="evenodd"></path><path stroke="#000000" stroke-width="1.0" stroke-linejoin="round" stroke-linecap="butt" d="m836.0906 384.00787l0 0c0 -32.650024 26.468079 -59.118103 59.118103 -59.118103l0 0c15.679077 0 30.716003 6.228485 41.802795 17.315277c11.086792 11.086792 17.315308 26.123718 17.315308 41.802826l0 0c0 32.650024 -26.468079 59.118103 -59.118103 59.118103l0 0c-32.650024 0 -59.118103 -26.468079 -59.118103 -59.118103z" fill-rule="evenodd"></path><path fill="#000000" fill-opacity="0.0" d="m788.0906 384.00787l48.0 0" fill-rule="evenodd"></path><path stroke="#000000" stroke-width="1.0" stroke-linejoin="round" stroke-linecap="butt" d="m788.0906 384.00787l48.0 0" fill-rule="evenodd"></path><path fill="#000000" fill-opacity="0.0" d="m43.06168 206.65355l42.01575 0l0 44.503937l-42.01575 0z" fill-rule="evenodd"></path><path fill="#000000" d="m59.662945 226.87042q0 -2.421875 0.5 -3.890625q0.5 -1.46875 1.46875 -2.265625q0.984375 -0.796875 2.4687462 -0.796875q1.09375 0 1.921875 0.4375q0.828125 0.4375 1.359375 1.28125q0.546875 0.828125 0.84375 2.015625q0.3125 1.1875 0.3125 3.21875q0 2.390625 -0.5 3.859375q-0.484375 1.46875 -1.46875 2.28125q-0.96875 0.796875 -2.46875 0.796875q-1.9687462 0 -3.0781212 -1.40625q-1.359375 -1.703125 -1.359375 -5.53125zm1.71875 0q0 3.34375 0.78125 4.453125q0.796875 1.109375 1.9374962 1.109375q1.15625 0 1.9375 -1.109375q0.78125 -1.125 0.78125 -4.453125q0 -3.359375 -0.78125 -4.46875q-0.78125 -1.109375 -1.953125 -1.109375q-1.1562462 0 -1.8281212 0.984375q-0.875 1.234375 -0.875 4.59375z" fill-rule="nonzero"></path><path fill="#000000" fill-opacity="0.0" d="m209.2874 206.65355l42.015747 0l0 44.503937l-42.015747 0z" fill-rule="evenodd"></path><path fill="#000000" d="m232.18555 233.57355l-1.671875 0l0 -10.640625q-0.59375 0.578125 -1.578125 1.15625q-0.984375 0.5625 -1.765625 0.859375l0 -1.625q1.40625 -0.65625 2.453125 -1.59375q1.046875 -0.9375 1.484375 -1.8125l1.078125 0l0 13.65625z" fill-rule="nonzero"></path><path fill="#000000" fill-opacity="0.0" d="m375.51312 88.41732l42.015747 0l0 44.503944l-42.015747 0z" fill-rule="evenodd"></path><path fill="#000000" d="m400.89563 113.72794l0 1.609375l-8.984375 0q-0.015625 -0.609375 0.1875 -1.15625q0.34375 -0.921875 1.09375 -1.8125q0.765625 -0.890625 2.1875 -2.0625q2.21875 -1.8125 3.0 -2.875q0.78125 -1.0625 0.78125 -2.015625q0 -0.984375 -0.71875 -1.671875q-0.703125 -0.6875 -1.84375 -0.6875q-1.203125 0 -1.9375 0.734375q-0.71875 0.71875 -0.71875 2.0l-1.71875 -0.171875q0.171875 -1.921875 1.328125 -2.921875q1.15625 -1.015625 3.09375 -1.015625q1.953125 0 3.09375 1.09375q1.140625 1.078125 1.140625 2.6875q0 0.8125 -0.34375 1.609375q-0.328125 0.78125 -1.109375 1.65625q-0.765625 0.859375 -2.5625 2.390625q-1.5 1.265625 -1.9375 1.71875q-0.421875 0.4375 -0.703125 0.890625l6.671875 0z" fill-rule="nonzero"></path><path fill="#000000" fill-opacity="0.0" d="m541.73883 88.41732l42.015747 0l0 44.503944l-42.015747 0z" fill-rule="evenodd"></path><path fill="#000000" d="m558.3557 111.74357l1.671875 -0.21875q0.28125 1.421875 0.96875 2.046875q0.703125 0.625 1.6875 0.625q1.1875 0 2.0 -0.8125q0.8125 -0.828125 0.8125 -2.03125q0 -1.140625 -0.765625 -1.890625q-0.75 -0.75 -1.90625 -0.75q-0.46875 0 -1.171875 0.1875l0.1875 -1.46875q0.15625 0.015625 0.265625 0.015625q1.0625 0 1.90625 -0.546875q0.859375 -0.5625 0.859375 -1.71875q0 -0.921875 -0.625 -1.515625q-0.609375 -0.609375 -1.59375 -0.609375q-0.96875 0 -1.625 0.609375q-0.640625 0.609375 -0.828125 1.84375l-1.671875 -0.296875q0.296875 -1.6875 1.375 -2.609375q1.09375 -0.921875 2.71875 -0.921875q1.109375 0 2.046875 0.484375q0.9375 0.46875 1.421875 1.296875q0.5 0.828125 0.5 1.75q0 0.890625 -0.46875 1.609375q-0.46875 0.71875 -1.40625 1.15625q1.21875 0.265625 1.875 1.15625q0.671875 0.875 0.671875 2.1875q0 1.78125 -1.296875 3.015625q-1.296875 1.234375 -3.28125 1.234375q-1.796875 0 -2.984375 -1.0625q-1.171875 -1.0625 -1.34375 -2.765625z" fill-rule="nonzero"></path><path fill="#000000" fill-opacity="0.0" d="m707.9698 88.41732l42.015747 0l0 44.503944l-42.015747 0z" fill-rule="evenodd"></path><path fill="#000000" d="m729.9305 115.33732l0 -3.25l-5.90625 0l0 -1.53125l6.21875 -8.8125l1.359375 0l0 8.8125l1.84375 0l0 1.53125l-1.84375 0l0 3.25l-1.671875 0zm0 -4.78125l0 -6.140625l-4.25 6.140625l4.25 0z" fill-rule="nonzero"></path><path fill="#000000" fill-opacity="0.0" d="m874.1903 88.41732l42.015747 0l0 44.503944l-42.015747 0z" fill-rule="evenodd"></path><path fill="#000000" d="m890.79156 111.77482l1.765625 -0.15625q0.1875 1.28125 0.890625 1.9375q0.71875 0.640625 1.71875 0.640625q1.203125 0 2.03125 -0.90625q0.84375 -0.90625 0.84375 -2.421875q0 -1.421875 -0.8125 -2.25q-0.796875 -0.828125 -2.09375 -0.828125q-0.796875 0 -1.453125 0.375q-0.640625 0.359375 -1.015625 0.953125l-1.578125 -0.203125l1.328125 -7.0l6.765625 0l0 1.609375l-5.4375 0l-0.734375 3.640625q1.234375 -0.84375 2.578125 -0.84375q1.78125 0 3.0 1.234375q1.234375 1.234375 1.234375 3.171875q0 1.84375 -1.078125 3.1875q-1.3125 1.65625 -3.578125 1.65625q-1.859375 0 -3.03125 -1.03125q-1.171875 -1.046875 -1.34375 -2.765625z" fill-rule="nonzero"></path><path fill="#000000" fill-opacity="0.0" d="m375.51312 324.88977l42.015747 0l0 44.503937l-42.015747 0z" fill-rule="evenodd"></path><path fill="#000000" d="m400.78625 341.54413l-1.65625 0.125q-0.21875 -0.984375 -0.640625 -1.421875q-0.671875 -0.71875 -1.65625 -0.71875q-0.8125 0 -1.40625 0.4375q-0.796875 0.578125 -1.25 1.6875q-0.453125 1.09375 -0.46875 3.140625q0.609375 -0.921875 1.46875 -1.359375q0.875 -0.453125 1.828125 -0.453125q1.671875 0 2.84375 1.234375q1.171875 1.234375 1.171875 3.171875q0 1.28125 -0.546875 2.390625q-0.546875 1.09375 -1.515625 1.6875q-0.96875 0.578125 -2.1875 0.578125q-2.09375 0 -3.40625 -1.53125q-1.3125 -1.546875 -1.3125 -5.0625q0 -3.953125 1.453125 -5.734375q1.265625 -1.5625 3.421875 -1.5625q1.609375 0 2.625 0.90625q1.03125 0.890625 1.234375 2.484375zm-6.8125 5.859375q0 0.859375 0.359375 1.65625q0.375 0.78125 1.03125 1.203125q0.65625 0.40625 1.375 0.40625q1.0625 0 1.8125 -0.84375q0.765625 -0.859375 0.765625 -2.328125q0 -1.40625 -0.75 -2.21875q-0.75 -0.8125 -1.890625 -0.8125q-1.125 0 -1.921875 0.8125q-0.78125 0.8125 -0.78125 2.125z" fill-rule="nonzero"></path><path fill="#000000" fill-opacity="0.0" d="m541.73883 324.88977l42.015747 0l0 44.503937l-42.015747 0z" fill-rule="evenodd"></path><path fill="#000000" d="m558.4651 339.99725l0 -1.609375l8.796875 0l0 1.296875q-1.296875 1.375 -2.578125 3.671875q-1.265625 2.296875 -1.96875 4.71875q-0.5 1.703125 -0.640625 3.734375l-1.71875 0q0.03125 -1.609375 0.625 -3.875q0.609375 -2.28125 1.734375 -4.390625q1.140625 -2.109375 2.40625 -3.546875l-6.65625 0z" fill-rule="nonzero"></path><path fill="#000000" fill-opacity="0.0" d="m707.9698 324.88977l42.015747 0l0 44.503937l-42.015747 0z" fill-rule="evenodd"></path><path fill="#000000" d="m727.14923 344.43475q-1.046875 -0.375 -1.546875 -1.078125q-0.5 -0.71875 -0.5 -1.703125q0 -1.484375 1.0625 -2.484375q1.078125 -1.015625 2.84375 -1.015625q1.78125 0 2.859375 1.03125q1.09375 1.03125 1.09375 2.515625q0 0.953125 -0.5 1.65625q-0.484375 0.703125 -1.5 1.078125q1.25 0.40625 1.90625 1.3125q0.65625 0.90625 0.65625 2.171875q0 1.75 -1.234375 2.9375q-1.234375 1.1875 -3.25 1.1875q-2.015625 0 -3.25 -1.1875q-1.234375 -1.203125 -1.234375 -2.984375q0 -1.328125 0.671875 -2.21875q0.671875 -0.890625 1.921875 -1.21875zm-0.328125 -2.828125q0 0.96875 0.609375 1.578125q0.625 0.609375 1.625 0.609375q0.953125 0 1.5625 -0.609375q0.625 -0.609375 0.625 -1.484375q0 -0.921875 -0.640625 -1.546875q-0.625 -0.625 -1.578125 -0.625q-0.953125 0 -1.578125 0.609375q-0.625 0.609375 -0.625 1.46875zm-0.546875 6.28125q0 0.71875 0.328125 1.390625q0.34375 0.65625 1.015625 1.03125q0.671875 0.359375 1.4375 0.359375q1.203125 0 1.984375 -0.765625q0.78125 -0.78125 0.78125 -1.96875q0 -1.203125 -0.8125 -1.984375q-0.796875 -0.796875 -2.0 -0.796875q-1.1875 0 -1.96875 0.78125q-0.765625 0.78125 -0.765625 1.953125z" fill-rule="nonzero"></path><path fill="#000000" fill-opacity="0.0" d="m874.1903 324.88977l42.015747 0l0 44.503937l-42.015747 0z" fill-rule="evenodd"></path><path fill="#000000" d="m891.0572 348.66913l1.59375 -0.15625q0.203125 1.140625 0.78125 1.65625q0.578125 0.5 1.484375 0.5q0.765625 0 1.34375 -0.34375q0.578125 -0.359375 0.953125 -0.953125q0.375 -0.59375 0.625 -1.59375q0.25 -1.0 0.25 -2.03125q0 -0.109375 -0.015625 -0.34375q-0.5 0.796875 -1.375 1.296875q-0.859375 0.5 -1.875 0.5q-1.6875 0 -2.859375 -1.21875q-1.171875 -1.234375 -1.171875 -3.234375q0 -2.078125 1.21875 -3.328125q1.234375 -1.265625 3.0625 -1.265625q1.328125 0 2.421875 0.71875q1.109375 0.703125 1.671875 2.03125q0.578125 1.328125 0.578125 3.828125q0 2.609375 -0.578125 4.15625q-0.5625 1.546875 -1.6875 2.359375q-1.109375 0.796875 -2.609375 0.796875q-1.59375 0 -2.609375 -0.890625q-1.0 -0.890625 -1.203125 -2.484375zm6.828125 -6.0q0 -1.4375 -0.765625 -2.28125q-0.765625 -0.859375 -1.84375 -0.859375q-1.109375 0 -1.9375 0.921875q-0.828125 0.90625 -0.828125 2.34375q0 1.3125 0.78125 2.125q0.796875 0.796875 1.9375 0.796875q1.171875 0 1.90625 -0.796875q0.75 -0.8125 0.75 -2.25z" fill-rule="nonzero"></path><path fill="#000000" fill-opacity="0.0" d="m621.8648 147.53543l48.0 0" fill-rule="evenodd"></path><path stroke="#000000" stroke-width="1.0" stroke-linejoin="round" stroke-linecap="butt" d="m621.8648 147.53543l42.0 0" fill-rule="evenodd"></path><path fill="#000000" stroke="#000000" stroke-width="1.0" stroke-linecap="butt" d="m663.8648 149.18716l4.538147 -1.6517334l-4.538147 -1.6517334z" fill-rule="evenodd"></path><path fill="#000000" fill-opacity="0.0" d="m788.0906 147.53543l48.0 0" fill-rule="evenodd"></path><path stroke="#000000" stroke-width="1.0" stroke-linejoin="round" stroke-linecap="butt" d="m788.0906 147.53543l42.0 0" fill-rule="evenodd"></path><path fill="#000000" stroke="#000000" stroke-width="1.0" stroke-linecap="butt" d="m830.0906 149.18716l4.538086 -1.6517334l-4.538086 -1.6517334z" fill-rule="evenodd"></path><path fill="#000000" fill-opacity="0.0" d="m954.3268 147.53543l50.58264 0" fill-rule="evenodd"></path><path stroke="#000000" stroke-width="1.0" stroke-linejoin="round" stroke-linecap="butt" stroke-dasharray="4.0,3.0" d="m954.3268 147.53543l50.58264 0" fill-rule="evenodd"></path><path fill="#000000" fill-opacity="0.0" d="m954.3268 384.00787l50.58264 0" fill-rule="evenodd"></path><path stroke="#000000" stroke-width="1.0" stroke-linejoin="round" stroke-linecap="butt" stroke-dasharray="4.0,3.0" d="m954.3268 384.00787l50.58264 0" fill-rule="evenodd"></path><path fill="#000000" fill-opacity="0.0" d="m58.07349 265.39365c6.5568657 5.2038574 23.625546 23.62555 39.341206 31.223083c15.71566 7.5975647 31.431328 19.253723 54.95275 14.362213c23.521439 -4.89151 64.63211 -23.624664 86.17586 -43.711273c21.543762 -20.086624 26.954956 -55.785217 43.08661 -76.80841c16.131683 -21.023178 33.92871 -41.108917 53.70343 -49.330704c19.77472 -8.2217865 44.75415 -2.9138184 64.944885 0c20.190704 2.9138184 33.719147 13.632111 56.199463 17.48294c22.480316 3.85083 60.05252 6.8709564 78.6824 5.62204c18.629944 -1.2489014 15.924316 -6.558609 33.097107 -13.1154785c17.17279 -6.5568695 48.395874 -21.646545 69.93964 -26.225723c21.543762 -4.579178 45.168457 -2.9142609 59.322876 -1.2493439c14.154419 1.664917 19.046753 7.0756836 25.603638 11.238846c6.556885 4.163162 11.447937 11.450134 13.737549 13.740158" fill-rule="evenodd"></path><path stroke="#000000" stroke-width="2.0" stroke-linejoin="round" stroke-linecap="butt" stroke-dasharray="8.0,6.0" d="m58.07349 265.39365c6.5568657 5.2038574 23.625546 23.62555 39.341206 31.223083c15.71566 7.5975647 31.431328 19.253723 54.95275 14.362213c23.521439 -4.89151 64.63211 -23.624664 86.17586 -43.711273c21.543762 -20.086624 26.954956 -55.785217 43.08661 -76.80841c16.131683 -21.023178 33.92871 -41.108917 53.70343 -49.330704c19.77472 -8.2217865 44.75415 -2.9138184 64.944885 0c20.190704 2.9138184 33.719147 13.632111 56.199463 17.48294c22.480316 3.85083 60.05252 6.8709564 78.6824 5.62204c18.629944 -1.2489014 15.924316 -6.558609 33.097107 -13.1154785c17.17279 -6.5568695 48.395874 -21.646545 69.93964 -26.225723c21.543762 -4.579178 45.168457 -2.9142609 59.322876 -1.2493439c14.154419 1.664917 19.046753 7.0756836 25.603638 11.238846c6.556885 4.163162 11.447937 11.450134 13.737549 13.740158" fill-rule="evenodd"></path><path fill="#000000" fill-opacity="0.0" d="m289.4147 171.85826l53.07086 0l0 71.05513l-53.07086 0z" fill-rule="evenodd"></path><path fill="#000000" d="m309.4772 218.46951q-0.015625 -0.84375 -0.015625 -1.265625q0 -2.484375 0.703125 -4.28125q0.515625 -1.359375 1.65625 -2.75q0.84375 -1.0 3.03125 -2.9375q2.203125 -1.9375 2.859375 -3.078125q0.65625 -1.15625 0.65625 -2.515625q0 -2.453125 -1.921875 -4.3125q-1.921875 -1.875 -4.71875 -1.875q-2.6875 0 -4.5 1.6875q-1.796875 1.6875 -2.359375 5.28125l-4.34375 -0.515625q0.59375 -4.8125 3.484375 -7.359375q2.890625 -2.5625 7.65625 -2.5625q5.03125 0 8.03125 2.75q3.0 2.734375 3.0 6.625q0 2.25 -1.0625 4.15625q-1.046875 1.890625 -4.109375 4.609375q-2.0625 1.828125 -2.703125 2.703125q-0.625 0.859375 -0.9375 1.984375q-0.296875 1.125 -0.34375 3.65625l-4.0625 0zm-0.25 8.46875l0 -4.8125l4.796875 0l0 4.8125l-4.796875 0z" fill-rule="nonzero"></path><path fill="#000000" fill-opacity="0.0" d="m262.87927 318.3701l53.07086 0l0 71.055115l-53.07086 0z" fill-rule="evenodd"></path><path fill="#000000" d="m282.94177 364.98132q-0.015625 -0.84375 -0.015625 -1.265625q0 -2.484375 0.703125 -4.28125q0.515625 -1.359375 1.65625 -2.75q0.84375 -1.0 3.03125 -2.9375q2.203125 -1.9375 2.859375 -3.078125q0.65625 -1.15625 0.65625 -2.515625q0 -2.453125 -1.921875 -4.3125q-1.921875 -1.875 -4.71875 -1.875q-2.6875 0 -4.5 1.6875q-1.796875 1.6875 -2.359375 5.28125l-4.34375 -0.515625q0.59375 -4.8125 3.484375 -7.359375q2.890625 -2.5625 7.65625 -2.5625q5.03125 0 8.03125 2.75q3.0 2.734375 3.0 6.625q0 2.25 -1.0625 4.15625q-1.046875 1.890625 -4.109375 4.609375q-2.0625 1.828125 -2.703125 2.703125q-0.625 0.859375 -0.9375 1.984375q-0.296875 1.125 -0.34375 3.65625l-4.0625 0zm-0.25 8.46875l0 -4.8125l4.796875 0l0 4.8125l-4.796875 0z" fill-rule="nonzero"></path></g></svg>

